<svg xmlns="http://www.w3.org/2000/svg" width="20" height="17.771"><g fill="#009688"><path d="M5.811 10.307a12.457 12.457 0 001.619-.1V4.572a12.464 12.464 0 00-1.619-.1C2.599 4.464-.001 5.644-.001 7.1v.572c0 1.455 2.6 2.635 5.812 2.635zm0 2.942a12.476 12.476 0 001.619-.1v-1.652a12.465 12.465 0 01-1.619.1c-2.8 0-5.139-.9-5.689-2.1a1.285 1.285 0 00-.122.54v.572c-.001 1.46 2.599 2.64 5.811 2.64zm1.619 1.315v-.128a12.468 12.468 0 01-1.619.1c-2.8 0-5.139-.9-5.689-2.1a1.285 1.285 0 00-.122.55v.572c0 1.453 2.6 2.628 5.811 2.628a12.342 12.342 0 001.836-.134 2.079 2.079 0 01-.217-.921zM14.189 0C10.98 0 8.378 1.18 8.378 2.636v.572c0 1.456 2.6 2.636 5.811 2.636S20 4.664 20 3.208v-.572C20 1.18 17.398 0 14.189 0z"/><path d="M14.189 7.134c-2.8 0-5.139-.9-5.689-2.1a1.285 1.285 0 00-.122.54v.572c0 1.456 2.6 2.636 5.811 2.636S20 7.602 20 6.146v-.572a1.285 1.285 0 00-.122-.54c-.55 1.201-2.888 2.1-5.689 2.1z"/><path d="M14.189 10.077c-2.8 0-5.139-.9-5.689-2.1a1.285 1.285 0 00-.122.54v.572c0 1.456 2.6 2.636 5.811 2.636S20 10.545 20 9.089v-.572a1.285 1.285 0 00-.122-.54c-.55 1.201-2.888 2.1-5.689 2.1z"/><path d="M14.189 13.181c-2.8 0-5.139-.9-5.689-2.1a1.285 1.285 0 00-.122.54v.572c0 1.456 2.6 2.635 5.811 2.635S20 13.648 20 12.193v-.572a1.285 1.285 0 00-.122-.54c-.55 1.2-2.888 2.1-5.689 2.1z"/><path d="M14.189 16.12c-2.8 0-5.139-.9-5.689-2.1a1.286 1.286 0 00-.122.54v.572c0 1.456 2.6 2.635 5.811 2.635S20 16.587 20 15.132v-.572a1.285 1.285 0 00-.122-.54c-.55 1.201-2.888 2.1-5.689 2.1z"/></g></svg>