<svg xmlns="http://www.w3.org/2000/svg" width="20.275" height="21"><g data-name="Сгруппировать 130"><g data-name="Сгруппировать 129"><path data-name="Контур 93" d="M6.64 10.72a2.068 2.068 0 00.784-.355A1.6 1.6 0 008.15 8.42c-.361-.592-1.35-.553-2.109.122a2.373 2.373 0 00-.881 1.971 2.663 2.663 0 001.106 2.11 5.474 5.474 0 011.592-.839h.008A2.134 2.134 0 016.64 10.72zm-.117-1.675a.362.362 0 11.362.368.364.364 0 01-.362-.364z" fill="#009688"/></g></g><g data-name="Сгруппировать 132"><g data-name="Сгруппировать 131"><path data-name="Контур 94" d="M15.13 10.513a2.38 2.38 0 00-.883-1.972c-.759-.673-1.748-.715-2.109-.122a1.6 1.6 0 00.726 1.945 2.07 2.07 0 00.784.355 1.654 1.654 0 01-.779.835c-.573.342-.882.384-4.545 1.6a2.748 2.748 0 00-2.162 2.448 2.249 2.249 0 00.933 1.785 4.54 4.54 0 011.264-.9c-.573-.29-.749-.509-.749-.885 0-.62 1.24-.975 1.812-1.164v1.57l1.448-.646v-.923c.573.19 1.81.544 1.81 1.163 0 1.03-2.949 1.637-4.2 2.5a1.913 1.913 0 00-.936 1.589 1.362 1.362 0 00.678 1.257.21.21 0 00.314-.269c-.42-.841.026-1.261.892-1.624v1.215a.724.724 0 101.448 0v-1.21c.832.349 1.356.842.89 1.623a.21.21 0 00.313.269 1.374 1.374 0 00.664-1.248 1.99 1.99 0 00-.931-1.594c1.232-.445 2.323-1.195 2.323-2.506a2.522 2.522 0 00-1.571-2.2 5.063 5.063 0 001.009-.465 2.8 2.8 0 001.557-2.426zm-1.728-1.1a.368.368 0 11.362-.368.365.365 0 01-.362.368z" fill="#009688"/></g></g><g data-name="Сгруппировать 134"><g data-name="Сгруппировать 133"><path data-name="Контур 95" d="M20.275 1.45h-4.959a3.191 3.191 0 00-2.334 1.058c-.682.682-1.037 2.2-2.123 2.2V2.7a1.448 1.448 0 10-1.448 0v8.63l1.448-.464V7.235a1.61 1.61 0 00.723-.728 1.484 1.484 0 001.264.736 1.442 1.442 0 001.256-.74 2.423 2.423 0 003.273.016l-1.231-1.231.564.234a2.172 2.172 0 002.838-1.176l-1.748-.724a2.2 2.2 0 002.477-2.172z" fill="#009688"/></g></g><g data-name="Сгруппировать 136"><g data-name="Сгруппировать 135"><path data-name="Контур 96" d="M7.293 2.508A3.191 3.191 0 004.962 1.45H0a2.2 2.2 0 002.472 2.169l-1.748.724a2.172 2.172 0 002.839 1.176l.564-.234-1.234 1.234a2.423 2.423 0 003.273-.016 1.442 1.442 0 001.256.74h.016a1.324 1.324 0 001.255-1.355V4.431c-.573-.468-.9-1.42-1.4-1.923z" fill="#009688"/></g></g></svg>