<svg xmlns="http://www.w3.org/2000/svg" width="328.46" height="479.754"><path d="M205.017 14.764V.654a.634.634 0 00-.65-.65h-13.372a.635.635 0 00-.65.65v14.021h-14.022a.635.635 0 00-.65.65v13.372a.635.635 0 00.65.65h14.023v14.02a.634.634 0 00.65.65h13.374a.634.634 0 00.65-.65v-14.02h14.021a.635.635 0 00.65-.65V15.414a.635.635 0 00-.65-.65zm31.963 302.944v-8.325a.374.374 0 00-.384-.383h-7.886a.374.374 0 00-.384.383v8.27h-8.27a.374.374 0 00-.384.384v7.887a.375.375 0 00.384.384h8.271v8.269a.374.374 0 00.384.383h7.887a.374.374 0 00.384-.383v-8.269h8.27a.375.375 0 00.384-.384v-7.832a.374.374 0 00-.384-.384zm-67.411-137.541v-77.171a3.468 3.468 0 00-3.556-3.552H92.9a3.471 3.471 0 00-3.556 3.552v76.664H12.68a3.472 3.472 0 00-3.556 3.556v73.113a3.474 3.474 0 003.556 3.556h76.673v76.66a3.468 3.468 0 003.556 3.552h73.112a3.468 3.468 0 003.556-3.552v-76.66h76.664a3.474 3.474 0 003.556-3.556v-72.6a3.472 3.472 0 00-3.556-3.556z" fill="#dfdfdf"/><path d="M160.945 193.229v-77.171a3.468 3.468 0 00-3.556-3.552H84.276a3.471 3.471 0 00-3.556 3.552v76.664H4.056A3.472 3.472 0 00.5 196.278v73.113a3.474 3.474 0 003.556 3.556h76.673v76.66a3.468 3.468 0 003.556 3.552h73.112a3.468 3.468 0 003.556-3.552v-76.66h76.664a3.474 3.474 0 003.556-3.556v-72.6a3.472 3.472 0 00-3.556-3.556zm12.07 248.259v-18.224a.819.819 0 00-.84-.839H154.91a.82.82 0 00-.84.839v18.1h-18.1a.82.82 0 00-.84.84v17.265a.82.82 0 00.84.84h18.106v18.1a.819.819 0 00.84.839h17.265a.819.819 0 00.84-.839v-18.1h18.1a.82.82 0 00.84-.84v-17.142a.82.82 0 00-.84-.84zm136-351V72.264a.819.819 0 00-.84-.839H290.91a.82.82 0 00-.84.839v18.1h-18.1a.82.82 0 00-.84.84v17.265a.82.82 0 00.84.84h18.106v18.1a.819.819 0 00.84.839h17.265a.819.819 0 00.84-.839v-18.1h18.1a.82.82 0 00.84-.84V91.327a.82.82 0 00-.84-.84z" fill="none" stroke="#ccc"/></svg>