<svg xmlns="http://www.w3.org/2000/svg" width="152.788" height="128.754"><path d="M29.344 14.764V.654a.634.634 0 00-.65-.65H15.322a.635.635 0 00-.65.65v14.021H.65a.635.635 0 00-.65.65v13.372a.635.635 0 00.65.65h14.023v14.02a.634.634 0 00.65.65h13.374a.634.634 0 00.65-.65v-14.02h14.021a.635.635 0 00.65-.65V15.414a.635.635 0 00-.65-.65z" fill="#dfdfdf"/><path d="M133.342 90.488V72.264a.819.819 0 00-.84-.839h-17.265a.82.82 0 00-.84.839v18.1h-18.1a.82.82 0 00-.84.84v17.265a.82.82 0 00.84.84h18.106v18.1a.819.819 0 00.84.839h17.265a.819.819 0 00.84-.839v-18.1h18.1a.82.82 0 00.84-.84V91.327a.82.82 0 00-.84-.84z" fill="none" stroke="#ccc"/></svg>