<svg xmlns="http://www.w3.org/2000/svg" width="20" height="21.37"><g fill="#009688"><path d="M7.777 4.332h.741v.741h-.741zm0 2.962h.741v.741h-.741zm0 2.963h.741v.741h-.741zM4.073 13.22h.741v.741h-.741zm12.593-5.185h.741v.741h-.741zM4.073 10.257h.741v.741h-.741zm0-5.925h.741v.741h-.741zm3.704 8.888h.741v.741h-.741zM4.073 7.294h.741v.741h-.741zm9.63 3.704h.741v.741h-.741zm2.963 0h.741v.741h-.741zm0 2.963h.741v.741h-.741zm-2.963-5.926h.741v.741h-.741zm0 5.926h.741v.741h-.741zm-10 2.963h2.222v2.963H3.703zm2.963 0h2.222v2.963H6.666zm7.777.74h2.222v2.222h-2.222zm0 0"/><path d="M18.889 20.629V6.845l-6.667-1.667v15.451h-.741V2.766L1.111-.001v20.63H-.001v.741h20v-.741zM7.037 3.963a.37.37 0 01.37-.37h1.482a.37.37 0 01.37.37v1.481a.37.37 0 01-.37.37H7.407a.37.37 0 01-.37-.37zm0 2.963a.37.37 0 01.37-.37h1.482a.37.37 0 01.37.37v1.481a.37.37 0 01-.37.37H7.407a.37.37 0 01-.37-.37zm0 2.963a.37.37 0 01.37-.37h1.482a.37.37 0 01.37.37v1.481a.37.37 0 01-.37.37H7.407a.37.37 0 01-.37-.37zm0 2.963a.37.37 0 01.37-.37h1.482a.37.37 0 01.37.37v1.481a.37.37 0 01-.37.37H7.407a.37.37 0 01-.37-.37zm-3.7-8.889a.37.37 0 01.362-.371h1.486a.37.37 0 01.37.37v1.482a.37.37 0 01-.37.37H3.699a.37.37 0 01-.37-.37zm0 2.963a.37.37 0 01.362-.371h1.486a.37.37 0 01.37.37v1.482a.37.37 0 01-.37.37H3.699a.37.37 0 01-.37-.37zm0 2.963a.37.37 0 01.362-.371h1.486a.37.37 0 01.37.37v1.481a.37.37 0 01-.37.37H3.699a.37.37 0 01-.37-.37zm0 2.963a.37.37 0 01.37-.37h1.478a.37.37 0 01.37.37v1.481a.37.37 0 01-.37.37H3.699a.37.37 0 01-.37-.37zm6.3 7.037v.741H2.963v-4.075a.37.37 0 01.37-.37h5.926a.37.37 0 01.37.37zm3.326-12.222a.37.37 0 01.37-.37h1.481a.37.37 0 01.37.37v1.481a.37.37 0 01-.37.37h-1.481a.37.37 0 01-.37-.37zm0 2.963a.37.37 0 01.37-.37h1.481a.37.37 0 01.37.37v1.481a.37.37 0 01-.37.37h-1.481a.37.37 0 01-.37-.37zm0 4.444v-1.482a.37.37 0 01.37-.37h1.481a.37.37 0 01.37.37v1.481a.37.37 0 01-.37.37h-1.481a.37.37 0 01-.37-.369zm4.444 5.556h-3.708v-3.331a.37.37 0 01.37-.37h2.963a.37.37 0 01.37.37zm.741-5.556a.37.37 0 01-.37.37h-1.479a.37.37 0 01-.37-.37v-1.482a.37.37 0 01.37-.37h1.481a.37.37 0 01.37.37zm0-2.963a.37.37 0 01-.37.37h-1.479a.37.37 0 01-.37-.37v-1.482a.37.37 0 01.37-.37h1.481a.37.37 0 01.37.37zm0-2.963a.37.37 0 01-.37.37h-1.479a.37.37 0 01-.37-.37V7.667a.37.37 0 01.37-.37h1.481a.37.37 0 01.37.37zm0 0"/></g></svg>