<svg xmlns="http://www.w3.org/2000/svg" width="31.103" height="36"><path d="M23.931 12.651l-.485-7.66a5.33 5.33 0 00-5.319-4.993h-4.434a5.33 5.33 0 00-5.319 4.993l-.485 7.66a3.034 3.034 0 003.028 3.226h9.99a3.034 3.034 0 003.024-3.226z" fill="#009688"/><path d="M22.596 8.27h-.425a.458.458 0 00-.418-.456c-5.688-.512-7.557-2.106-9.109-3.715-.276-.286-2.95.843-2.993 3.468v.7h-.427A1.133 1.133 0 008.091 9.4v1.255a1.133 1.133 0 001.133 1.133h.428a6.358 6.358 0 002.445 4.3 5.249 5.249 0 007.626 0 6.358 6.358 0 002.445-4.3h.428a1.133 1.133 0 001.133-1.133V9.402a1.133 1.133 0 00-1.133-1.132zm8.468 18.627a17.837 17.837 0 00-10.138-8 .281.281 0 00-.281.068 29.371 29.371 0 01-5.089 3.863 36.543 36.543 0 01-5.1-3.863.281.281 0 00-.281-.068 17.833 17.833 0 00-10.137 8 .281.281 0 000 .284 18.054 18.054 0 0031.025 0 .28.28 0 00.001-.284zm-5.946 2.092a.294.294 0 01-.3.273H22.91a.328.328 0 00-.325.288v1.967a.241.241 0 01-.238.273h-1.71a.293.293 0 01-.3-.273V29.55a.272.272 0 00-.262-.288h-1.989a.277.277 0 01-.284-.273v-1.694a.283.283 0 01.284-.28h1.987a.265.265 0 00.261-.282v-1.969a.3.3 0 01.3-.277h1.693a.258.258 0 01.257.277v1.975s.15.276.306.276h1.924a.3.3 0 01.3.286z" fill="#009688"/></svg>