<svg xmlns="http://www.w3.org/2000/svg" width="31.103" height="36"><path d="M15.552 0a7.042 7.042 0 00-7.038 7.035v3.645a7.034 7.034 0 1014.068 0V7.035A7.042 7.042 0 0015.552 0zm15.512 26.881a17.842 17.842 0 00-10.138-8.013.28.28 0 00-.281.069 29.372 29.372 0 01-5.089 3.869 36.544 36.544 0 01-5.1-3.869.281.281 0 00-.281-.069A17.838 17.838 0 00.038 26.881a.282.282 0 000 .285 18.039 18.039 0 0031.025 0 .281.281 0 00.001-.285zm-5.946 2.1a.3.3 0 01-.3.274H22.91a.328.328 0 00-.325.289v1.97a.241.241 0 01-.238.273h-1.71a.293.293 0 01-.3-.273v-1.97a.272.272 0 00-.262-.289h-1.989a.277.277 0 01-.284-.274v-1.7a.283.283 0 01.284-.281h1.987a.266.266 0 00.261-.282v-1.973a.3.3 0 01.3-.278h1.693a.259.259 0 01.257.278v1.978s.15.276.306.276h1.924a.305.305 0 01.3.287z" fill="#009688"/></svg>