<svg xmlns="http://www.w3.org/2000/svg" width="20" height="17.366"><g fill="#009688"><path d="M4.1 5.276H0v12.09h4.1zm-1.392 7.913H1.392v-1.172h1.319zm0-2.638H1.392V9.379h1.319zM1.389 7.913V6.741h1.322v1.172zm14.508 9.453h4.1V5.276h-4.1zm1.392-10.625h1.319v1.172h-1.319zm0 2.638h1.319v1.172h-1.319zm1.319 2.638v1.172h-1.319v-1.172zm-10.66 3.809h1.466v1.54H7.948zm2.638 0h1.466v1.54h-1.466z"/><path d="M5.275 17.366h1.5v-2.712h6.447v2.712h1.5V0h-9.45zm5.384-4.18H9.34v-1.169h1.319zm0-2.638H9.34V9.379h1.319zm0-2.638H9.34V6.742h1.319zm2.638 5.275h-1.319v-1.168h1.319zm0-2.638h-1.319V9.379h1.319zm0-2.638h-1.319V6.742h1.319zM8.022 2.786h1.392V1.394h1.172v1.392h1.392v1.172h-1.392V5.35H9.414V3.959H8.022zM6.703 6.741h1.319v1.172H6.703zm0 2.638h1.319v1.172H6.703zm0 2.638h1.319v1.169H6.703z"/></g></svg>