<svg xmlns="http://www.w3.org/2000/svg" width="19" height="19"><g data-name="Сгруппировать 146"><g data-name="Сгруппировать 145" fill="#1050ff"><path data-name="Контур 142" d="M7.876 14.482l-2.239 2.237a2.375 2.375 0 01-3.359-3.358l4.478-4.479a2.374 2.374 0 013.358 0 .792.792 0 101.12-1.12 3.958 3.958 0 00-5.6 0l-4.475 4.481a3.96 3.96 0 105.6 5.6l2.234-2.241a.792.792 0 10-1.12-1.12z"/><path data-name="Контур 143" d="M17.841 1.159a3.959 3.959 0 00-5.6 0L9.555 3.845a.792.792 0 001.12 1.12l2.686-2.686a2.375 2.375 0 013.359 3.358l-4.926 4.926a2.374 2.374 0 01-3.358 0 .792.792 0 00-1.12 1.12 3.958 3.958 0 005.6 0l4.926-4.926a3.958 3.958 0 00-.001-5.598z"/></g></g></svg>