<svg xmlns="http://www.w3.org/2000/svg" width="216" height="44"><text transform="translate(61 18)" fill="#404040" stroke="rgba(0,0,0,0)" stroke-miterlimit="10" font-size="16" font-family="Roboto-Medium, Roboto" font-weight="500"><tspan x="0" y="0">Вінницька міська </tspan><tspan x="0" y="21">клінічна лікарня №1</tspan></text><path d="M14.876 43h-.03a.875.875 0 01-.845-.9 4.737 4.737 0 012.174-4.221.875.875 0 01.9 1.5 3.113 3.113 0 00-1.325 2.781.875.875 0 01-.874.84z" fill="#00897b"/><path d="M28.635 17.881a3.868 3.868 0 00-2.578-1.094 3.047 3.047 0 00-2.312.735 1.563 1.563 0 00-.476 1.237 1.972 1.972 0 00.63 1.234c1.181 1.183.964 2.156-.891 4.013a.875.875 0 00.618 1.495.892.892 0 00.264-.04c1.561-.5 5.25-1.915 5.859-4.375a3.289 3.289 0 00-1.114-3.205z" fill="#009688"/><path d="M39.376 11.5a10.452 10.452 0 01-5.031-2.571 10.467 10.467 0 00-5.469-2.679c-2.819 0-7.3 2.5-8.75 3.353-1.451-.853-5.931-3.353-8.75-3.353a10.467 10.467 0 00-5.467 2.679A10.452 10.452 0 01.876 11.5a.875.875 0 00-.175 1.733A108.7 108.7 0 0020.126 15a108.689 108.689 0 0019.425-1.768.875.875 0 00-.175-1.733z" fill="#b0bec5"/><g transform="translate(15.751 1)" fill="#607d8b"><circle cx="4.375" cy="4.375" r="4.375"/><path d="M4.375 42a.875.875 0 01-.875-.875V7.875a.875.875 0 111.75 0v33.25a.875.875 0 01-.875.875z"/></g><path d="M27.884 30.583c-.336-2.546-3.887-3.773-6.234-4.585-.478-.166-.887-.306-1.169-.429-2.037-.9-4.391-2.763-4.646-4.2a1.418 1.418 0 01.525-1.358 1.636 1.636 0 00.229-2.425 3.817 3.817 0 00-4.93.278 3 3 0 00-1.075 2.966c.8 3.579 8.344 6.086 9.261 6.38.311.131.731.28 1.225.453 1.7.588 4.876 1.685 5.075 3.16.121.913-.949 2.186-3.01 3.584a.876.876 0 10.984 1.449c2.751-1.873 3.983-3.595 3.765-5.273z" fill="#00897b"/><path d="M25.376 43a.888.888 0 01-.163-.016.875.875 0 01-.7-1.02c.014-.1.359-2.77-4.639-4.251-4.931-1.461-7.443-3.2-7.681-5.325-.194-1.75 1.153-3.434 4-5.028a.875.875 0 01.854 1.528c-2.084 1.166-3.22 2.37-3.117 3.308.067.6.828 2.177 6.438 3.839 6.587 1.951 5.894 6.076 5.861 6.249a.875.875 0 01-.853.716z" fill="#009688"/></svg>