<svg xmlns="http://www.w3.org/2000/svg" width="20" height="20"><path d="M18.242 3.125h-1.758V1.172a1.172 1.172 0 10-2.344 0v1.1a1.36 1.36 0 01-.965 1.307l-.988.3v6.128a1.843 1.843 0 001.3.54h4.753a1.758 1.758 0 001.758-1.758V4.883a1.758 1.758 0 00-1.756-1.758zm-7.812 7.422H9.258a.586.586 0 01-.586-.586v-6.25a.586.586 0 01.586-.586h1.172a.586.586 0 01.586.586v6.25a.586.586 0 01-.586.586z" fill="#009688"/><path d="M13.489 11.714a2.992 2.992 0 01-1.765-.571 1.753 1.753 0 01-1.295.571H9.258A1.758 1.758 0 017.5 9.961V6.914H.586A.586.586 0 000 7.5v11.9a.6.6 0 00.274.514.586.586 0 00.637-.008l2.2-1.464H15.43a.586.586 0 00.586-.586v-6.142zM2.93 9.844h3.32a.586.586 0 010 1.172H2.93a.586.586 0 010-1.172zm10.156 6.445H2.93a.586.586 0 010-1.172h10.156a.586.586 0 010 1.172zm0-2.637H2.93a.586.586 0 010-1.172h10.156a.586.586 0 010 1.172z" fill="#009688"/></svg>