<svg xmlns="http://www.w3.org/2000/svg" width="80" height="80"><g transform="translate(-903 -373)"><circle data-name="Эллипс 43" cx="40" cy="40" r="40" transform="translate(903 373)" fill="#e5f4f3"/><path data-name="Контур 3" d="M958.479 398.234c-1.533-.825-3.242.766-4.244 1.709-2.3 2.24-4.244 4.833-6.425 7.191-2.417 2.593-4.656 5.187-7.132 7.722a21.266 21.266 0 00-3.89 4.715 77.37 77.37 0 00-6.307-6.137c-1.709-1.3-4.539-2.24-4.48.884.118 4.067 3.713 8.429 6.366 11.2 1.12 1.179 2.593 2.417 4.3 2.476 2.063.118 4.185-2.358 5.423-3.713 2.181-2.358 3.949-5.01 5.953-7.427 2.593-3.183 5.246-6.307 7.78-9.549 1.595-2.002 6.605-6.953 2.656-9.071zm-29.884 15.852a.446.446 0 00-.236.059 2.868 2.868 0 01-.648-.236q.265-.175.884.177z" fill="#009688"/></g></svg>