<svg xmlns="http://www.w3.org/2000/svg" width="24.915" height="21"><g fill="#2e2e2e"><path d="M.356 6.073A.356.356 0 010 5.717V3.204A1.424 1.424 0 011.424 1.78h1.523a.356.356 0 010 .712H1.424a.712.712 0 00-.712.712v2.513a.356.356 0 01-.356.356zm0 7.075A.356.356 0 010 12.792v-1.057a.356.356 0 01.712 0v1.057a.356.356 0 01-.356.356zm2.591 6.073H1.424A1.424 1.424 0 010 17.797v-2.509a.356.356 0 11.712 0v2.513a.712.712 0 00.712.712h1.523a.356.356 0 110 .712zM.356 9.6A.356.356 0 010 9.244V8.208a.356.356 0 11.712 0v1.036a.356.356 0 01-.356.356zm23.136 9.621H9.403a.356.356 0 010-.712h14.089a.712.712 0 00.712-.712V3.204a.712.712 0 00-.712-.712H9.403a.356.356 0 010-.712h14.089a1.424 1.424 0 011.424 1.424v14.593a1.424 1.424 0 01-1.424 1.424z"/><path d="M8.394 21H3.956a1.366 1.366 0 01-1.364-1.364V1.364A1.366 1.366 0 013.956 0h4.438a1.366 1.366 0 011.365 1.364v18.272A1.366 1.366 0 018.394 21zM3.956.712a.653.653 0 00-.652.652v18.272a.653.653 0 00.652.652h4.438a.653.653 0 00.653-.652V1.364a.653.653 0 00-.653-.652zM21.53 8.275h-9.454a.687.687 0 01-.686-.686V5.046a.687.687 0 01.686-.686h9.454a.687.687 0 01.686.686v2.543a.687.687 0 01-.686.686zm-9.428-.712h9.4V5.072h-9.4zm8.972 3.323h-.591a.356.356 0 110-.712h.593a.356.356 0 110 .712zm-3.975 0h-.593a.356.356 0 110-.712h.593a.356.356 0 010 .712zm-3.974 0h-.593a.356.356 0 010-.712h.593a.356.356 0 010 .712zm7.949 2.818h-.591a.356.356 0 110-.712h.593a.356.356 0 110 .712zm-3.975 0h-.593a.356.356 0 110-.712h.593a.356.356 0 010 .712zm-3.974 0h-.593a.356.356 0 010-.712h.593a.356.356 0 010 .712zm7.949 2.817h-.591a.356.356 0 110-.712h.593a.356.356 0 110 .712zm-3.975 0h-.593a.356.356 0 110-.712h.593a.356.356 0 010 .712zm-3.974 0h-.593a.356.356 0 010-.712h.593a.356.356 0 010 .712z"/></g></svg>