<svg xmlns="http://www.w3.org/2000/svg" width="21.286" height="15"><defs><clipPath id="a"><path fill="none" d="M0 0h21.286v15H0z"/></clipPath></defs><g data-name="Группа прокрутки 2" clip-path="url(#a)" style="isolation:isolate"><path data-name="Контур 60" d="M10.432 5.672a.477.477 0 01-.427-.3L8.244.126c-.056-.166-.146-.166-.2 0L6.282 5.372a.477.477 0 01-.427.3H.156c-.18 0-.208.083-.062.186L4.7 9.1a.454.454 0 01.163.486l-1.757 5.246c-.056.166.017.217.163.115l4.611-3.243a.49.49 0 01.527 0l4.611 3.243c.146.1.219.051.163-.115L11.42 9.586a.454.454 0 01.163-.486l4.611-3.242c.146-.1.118-.186-.062-.186h-5.7z" fill="#009688"/></g></svg>