<svg xmlns="http://www.w3.org/2000/svg" width="43.144" height="36"><g fill="#009688"><path d="M0 36h3.088v-6.2h37.035v6.167h3.017V25.039a4.569 4.569 0 00-.769-2.62 3.923 3.923 0 00-3.185-1.757c-1.516-.047-36.105-.035-36.105-.035L3.059 9.673A1.5 1.5 0 001.58 8.331c-1.328 0-1.443.834-1.518 1.272S0 36 0 36z"/><path d="M8.49 12.946H4.622v6.028h9.243a4.908 4.908 0 00-.584-2.609 6.324 6.324 0 00-2.677-2.744 5.869 5.869 0 00-2.114-.675zm15.104-8.18v2.836h4.779v4.737a15.965 15.965 0 002.895 0v-4.74h4.678V4.763h-4.678V-.001h-2.895v4.766z"/></g></svg>