<svg xmlns="http://www.w3.org/2000/svg" width="21" height="21"><g transform="translate(-32 -32)" fill="#009688"><path data-name="Контур 178" d="M48.5 48.875h3v2.25h-3z"/><path data-name="Контур 179" d="M44.75 42.875h3v2.25h-3z"/><path data-name="Контур 180" d="M41 48.125h10.5v-2.25H41zm3.375-1.5h6.375v.75h-6.375zm-2.625 0h1.875v.75H41.75z"/><path data-name="Контур 181" d="M48.5 42.875h3v2.25h-3z"/><path data-name="Контур 182" d="M44.75 48.875h3v2.25h-3z"/><path data-name="Контур 183" d="M51.5 39.875H41v2.25h10.5zm-7.875 1.5H41.75v-.75h1.875zm7.125 0h-6.375v-.75h6.375z"/><rect data-name="Прямоугольник 752" width="1" height="2" rx=".5" transform="translate(46 32)"/><rect data-name="Прямоугольник 753" width="2" height="2" rx="1" transform="translate(50 32)"/><rect data-name="Прямоугольник 754" width="2" height="2" rx="1" transform="translate(33 32)"/><path data-name="Контур 184" d="M37.25 39.875h3v2.25h-3z"/><rect data-name="Прямоугольник 755" width="1" height="2" rx=".5" transform="translate(38 32)"/><rect data-name="Прямоугольник 756" width="1" height="2" rx=".5" transform="translate(42 32)"/><path data-name="Контур 185" d="M52.25 33.5v.188A1.312 1.312 0 0150.937 35h-.375a1.313 1.313 0 01-1.312-1.312V33.5h-1.125v.188A1.313 1.313 0 0146.813 35h-.375a1.313 1.313 0 01-1.312-1.312V33.5H44v.188A1.312 1.312 0 0142.688 35h-.375A1.313 1.313 0 0141 33.688V33.5h-1.125v.188A1.313 1.313 0 0138.563 35h-.375a1.313 1.313 0 01-1.312-1.312V33.5H35.75v.188A1.313 1.313 0 0134.438 35h-.375a1.313 1.313 0 01-1.312-1.312V33.5h-.281a.469.469 0 00-.469.469v1.781H53v-1.781a.469.469 0 00-.469-.469z"/><path data-name="Контур 186" d="M44 48.875H33.5v2.25H44zm-3.375 1.5H34.25v-.75h6.375zm2.625 0h-1.875v-.75h1.875z"/><path data-name="Контур 187" d="M33.5 39.875h3v2.25h-3z"/><path data-name="Контур 188" d="M33.5 45.875h3v2.25h-3z"/><path data-name="Контур 189" d="M44 42.875H33.5v2.25H44zm-3.375 1.5H34.25v-.75h6.375zm2.625 0h-1.875v-.75h1.875z"/><path data-name="Контур 190" d="M37.25 45.875h3v2.25h-3z"/><path data-name="Контур 191" d="M32.469 53h20.062a.469.469 0 00.469-.469V36.5H32v16.031a.469.469 0 00.469.469zm17.156-15.375h.75v.75h-.75zm-3.75 0h.75v.75h-.75zm-3.75 0h.75v.75h-.75zm-3.75 0h.75v.75h-.75zm-3.75 0h.75v.75h-.75zM32.75 39.5a.375.375 0 01.375-.375h18.75a.375.375 0 01.375.375v12a.375.375 0 01-.375.375h-18.75a.375.375 0 01-.375-.375z"/></g></svg>