<svg xmlns="http://www.w3.org/2000/svg" width="21.228" height="21.228"><path data-name="Контур 91" d="M18.119 3.109a10.615 10.615 0 00-16.7 12.814L0 21.228l5.305-1.422a10.615 10.615 0 0012.814-16.7zm-7.505 16.875a9.349 9.349 0 01-4.891-1.377l-.228-.14-3.736 1 1-3.736-.14-.228a9.371 9.371 0 117.994 4.479z" fill="#1050ff"/><path data-name="Прямоугольник 183" fill="#1050ff" d="M9.992 14.656h1.244V15.9H9.992z"/><path data-name="Контур 92" d="M10.614 5.328a3.113 3.113 0 00-3.11 3.11h1.244a1.866 1.866 0 113.256 1.244l-2.012 2.25v1.481h1.244v-1.006l1.7-1.9a3.109 3.109 0 00-2.317-5.183z" fill="#1050ff"/></svg>