<svg xmlns="http://www.w3.org/2000/svg" width="21.413" height="21"><g fill="#f8f8f8"><path d="M20.633 10.317a.966.966 0 00-1.1.635l-1.1-.481v-.222a7.686 7.686 0 00-.241-1.912l.5-.33a1.1 1.1 0 001.75-1.228l-.232-.624a1.106 1.106 0 00-1.38-.679 1.1 1.1 0 00-.758 1.044l-.56.078a8.24 8.24 0 00-.25-.425.314.314 0 00-.532.335c.106.168.2.335.288.5a.439.439 0 00.449.232l1.01-.141a.314.314 0 00.252-.417.471.471 0 01.3-.607.485.485 0 01.594.3l.232.624a.488.488 0 01-.246.615.473.473 0 01-.591-.187.314.314 0 00-.445-.1l-.838.568a.438.438 0 00-.176.479 7.049 7.049 0 01.253 1.876c0 .1 0 .213-.008.324a.441.441 0 00.262.422l1.57.686a.314.314 0 00.434-.227l.05-.254a.337.337 0 01.662.13l-.258 1.312a.337.337 0 01-.412.262.351.351 0 01-.246-.41l.007-.035a.314.314 0 00-.323-.374l-1.7.077a.441.441 0 00-.4.3 7.011 7.011 0 01-.621 1.364.439.439 0 00.041.505l.751.893a.314.314 0 00.457.025.47.47 0 01.7.627l-.218.285a.486.486 0 01-.651.117.473.473 0 01-.179-.538.314.314 0 00-.171-.388l-1.083-.475a.438.438 0 00-.5.106 7.057 7.057 0 01-1.657 1.342.441.441 0 00-.212.449l.277 1.69a.314.314 0 00.427.241l.24-.1a.337.337 0 01.444.2.351.351 0 01-.211.43l-1.225.49a.337.337 0 01-.444-.2.351.351 0 01.211-.43l.033-.013a.314.314 0 00.139-.474l-.988-1.384a.441.441 0 00-.467-.169 7.074 7.074 0 01-3.182.083.441.441 0 00-.457.193l-.989 1.551a.314.314 0 00.157.464l.035.013a.478.478 0 01.286.613.313.313 0 00-.019.108.245.245 0 01-.371.259l-1.215-.443a.481.481 0 01-.289-.6.463.463 0 01.243-.267.512.512 0 01.393-.02l.028.01a.314.314 0 00.42-.261l.2-1.818a.441.441 0 00-.235-.437 7.036 7.036 0 01-1.956-1.497.44.44 0 00-.488-.109l-1.482.608a.314.314 0 00-.158.439.382.382 0 01-.128.5.4.4 0 01-.538-.118l-.38-.547a.4.4 0 01.066-.536.384.384 0 01.544.07.314.314 0 00.486.019l1.044-1.18a.439.439 0 00.055-.5 7.035 7.035 0 01-.31-.634.314.314 0 00-.578.248c.084.2.176.387.274.572l-.748.845a1.014 1.014 0 00-1.156.069 1.024 1.024 0 00-.193 1.388l.38.547a1.029 1.029 0 001.4.285 1.008 1.008 0 00.447-.994l1.093-.448a7.661 7.661 0 001.922 1.467l-.15 1.35a1.144 1.144 0 00-.524.111 1.087 1.087 0 00-.567.63 1.113 1.113 0 00.668 1.4l1.215.443a1.059 1.059 0 00.362.066.839.839 0 00.485-.148.9.9 0 00.366-.713 1.109 1.109 0 00-.375-1.2l.738-1.158a7.734 7.734 0 003.209-.084l.717 1a.964.964 0 001 1.613l1.225-.49a.974.974 0 00.579-1.211.958.958 0 00-.512-.563.971.971 0 00-.635-.059l-.194-1.184a7.683 7.683 0 001.6-1.294l.731.321a1.1 1.1 0 001.981.715l.218-.285a1.1 1.1 0 00-1.359-1.651l-.482-.573a7.648 7.648 0 00.567-1.246l1.233-.056a.964.964 0 001.9.035l.258-1.312a.967.967 0 00-.765-1.138zm-18.608.849l1.178.272c.026.164.057.33.095.5a.314.314 0 10.613-.138 5.71 5.71 0 01-.1-.574.441.441 0 00-.335-.367L1.8 10.473a.314.314 0 00-.385.3v.2a.4.4 0 01-.4.4.387.387 0 01-.386-.4L.64 9.762a.423.423 0 01.13-.3.377.377 0 01.275-.11.4.4 0 01.383.4.314.314 0 00.386.308l1.657-.388a.44.44 0 00.334-.368 6.96 6.96 0 01.874-2.562.439.439 0 00-.045-.5l-.79-.928a.314.314 0 00-.49.014l-.068.091a.307.307 0 01-.442.05.32.32 0 01-.044-.441l.526-.7a.307.307 0 01.5.349.314.314 0 00.14.457l1.1.478a.438.438 0 00.5-.107A7.052 7.052 0 017.31 4.126a.441.441 0 00.217-.446l-.254-1.694a.314.314 0 00-.424-.247l-.241.093a.337.337 0 01-.441-.209.351.351 0 01.217-.427L7.615.723a.337.337 0 01.441.209.351.351 0 01-.217.427l-.033.014a.314.314 0 00-.145.472l.969 1.4a.441.441 0 00.464.175 7.068 7.068 0 011.68-.2.44.44 0 00.414-.291l.321-.9a.314.314 0 00-.2-.406.509.509 0 01-.356-.55.5.5 0 01.191-.331.541.541 0 01.4-.112l.441.055a.523.523 0 01.464.563.506.506 0 01-.378.438.314.314 0 00-.233.34l.112.973a.438.438 0 00.342.378 6.982 6.982 0 012 .777.44.44 0 00.5-.039l1.33-1.079a.314.314 0 000-.49l-.2-.161a.337.337 0 01-.044-.487.351.351 0 01.478-.03l1.033.82a.337.337 0 01.044.487.351.351 0 01-.477.03l-.028-.022a.314.314 0 00-.481.115l-.712 1.546a.441.441 0 00.085.489c.045.046.089.093.141.15a.314.314 0 10.462-.426l-.063-.068.504-1.116a.964.964 0 00.9-1.67l-1.033-.82a.974.974 0 00-1.342.109.958.958 0 00-.235.724.971.971 0 00.264.58l-.931.756a7.608 7.608 0 00-1.932-.751l-.069-.6A1.138 1.138 0 0012.06.072l-.441-.055a1.175 1.175 0 00-.864.24 1.119 1.119 0 00-.428.753 1.138 1.138 0 00.494 1.077l-.182.509a7.7 7.7 0 00-1.566.177l-.7-1.014a.964.964 0 00-.98-1.626L6.162.606a.974.974 0 00-.588 1.211.958.958 0 00.5.57.971.971 0 00.634.067l.178 1.187a7.676 7.676 0 00-1.68 1.344L4.5 4.679a.941.941 0 00-.36-.906.936.936 0 00-1.31.18l-.526.7a.943.943 0 00.136 1.3.928.928 0 00.706.211.939.939 0 00.446-.175l.476.559A7.579 7.579 0 003.2 9.086l-1.217.287a1.029 1.029 0 00-.922-.646 1 1 0 00-.728.286 1.056 1.056 0 00-.322.745L0 10.973a1.016 1.016 0 001.016 1.02 1.033 1.033 0 001.009-.828z"/><path d="M9.218 9.45a.314.314 0 10-.294-.555 1.616 1.616 0 01-2.035-.25 1.352 1.352 0 01-.233-1.137 2.164 2.164 0 012.088-1.646 1.352 1.352 0 011.051.492 1.519 1.519 0 01-.012 1.74.314.314 0 00.536.329 2.138 2.138 0 00-.03-2.458 1.969 1.969 0 00-1.527-.731 2.791 2.791 0 00-2.725 2.143 1.97 1.97 0 00.354 1.656 2 2 0 001.6.729 2.62 2.62 0 001.227-.312zm6.099-2.818a1.364 1.364 0 10-1.352 1.182 1.277 1.277 0 001.352-1.182zm-2.075 0a.749.749 0 11.723.553.656.656 0 01-.723-.553zm-1.573 5.401a1.448 1.448 0 10-1.448 1.448 1.45 1.45 0 001.448-1.448zm-2.268 0a.82.82 0 11.82.82.821.821 0 01-.82-.82zm6.365-.591a1.126 1.126 0 10-1.126 1.126 1.128 1.128 0 001.126-1.126zm-1.624 0a.5.5 0 11.5.5.5.5 0 01-.499-.5zm-2.5 5.062a1.1 1.1 0 10-1.1-1.1 1.1 1.1 0 001.1 1.1zm0-1.579a.475.475 0 11-.475.475.476.476 0 01.475-.47zm-4.939-.272a1.137 1.137 0 10-1.137-1.137 1.138 1.138 0 001.137 1.137zm0-1.645a.508.508 0 11-.508.508.509.509 0 01.508-.507zm6.399-3.425a.314.314 0 00-.314-.314h-.278a.315.315 0 000 .629h.278a.314.314 0 00.314-.315zm-4.301 5.809h.285a.315.315 0 100-.629h-.285a.315.315 0 000 .629zm-2.646-4.578a.315.315 0 100-.629H5.88a.315.315 0 100 .629zm5.582-5.501a.315.315 0 000-.629h-.383a.315.315 0 000 .629zm2.091 8.429a.315.315 0 100 .629h.423a.315.315 0 100-.629z"/></g></svg>