<svg xmlns="http://www.w3.org/2000/svg" width="30.239" height="37.677"><path d="M30.201 28.814a17.346 17.346 0 00-9.856-7.79.273.273 0 00-.273.067 28.557 28.557 0 01-4.948 3.762 35.53 35.53 0 01-4.958-3.762.273.273 0 00-.273-.067 17.342 17.342 0 00-9.855 7.791.274.274 0 000 .277 17.537 17.537 0 0030.164 0 .273.273 0 00-.001-.278zM23.266 14.92l-.471-7.447a5.182 5.182 0 00-5.171-4.854h-4.311a5.182 5.182 0 00-5.171 4.854l-.471 7.447a2.95 2.95 0 002.944 3.136h9.709a2.95 2.95 0 002.942-3.136z" fill="#009688"/><path d="M21.969 10.659h-.415a.445.445 0 00-.407-.439c-5.53-.5-7.347-2.047-8.856-3.612-.268-.278-2.868.819-2.91 3.371v.683h-.415a1.1 1.1 0 00-1.1 1.1v1.221a1.1 1.1 0 001.1 1.1h.417a6.181 6.181 0 002.377 4.182 5.1 5.1 0 007.414 0 6.181 6.181 0 002.377-4.182h.417a1.1 1.1 0 001.1-1.1V11.76a1.1 1.1 0 00-1.099-1.101zM20.088.779l-3.14-.638a7.078 7.078 0 00-2.816 0l-3.141.638a.813.813 0 00-.6 1.088l.791 2.066a1.32 1.32 0 001.233.849h6.246a1.321 1.321 0 001.233-.849l.79-2.066a.813.813 0 00-.596-1.088z" fill="#009688"/><path d="M16.432 1.809h-.417v-.417a.547.547 0 00-1.094 0v.417h-.417a.547.547 0 100 1.094h.417v.416a.547.547 0 001.094 0v-.416h.417a.547.547 0 100-1.094z" fill="#fff"/></svg>