<svg xmlns="http://www.w3.org/2000/svg" width="32" height="32"><g transform="translate(-1152 -66)"><circle cx="16" cy="16" r="16" transform="translate(1152 66)" fill="#1050ff"/><path d="M1172.886 73h-2.463a4.327 4.327 0 00-4.557 4.676v2.156h-2.479a.387.387 0 00-.387.388v3.124a.387.387 0 00.387.387h2.477v7.882a.387.387 0 00.387.387h3.232a.387.387 0 00.387-.387v-7.882h2.9a.387.387 0 00.387-.387v-3.125a.388.388 0 00-.388-.388h-2.9V78c0-.878.209-1.324 1.354-1.324h1.66a.387.387 0 00.387-.387v-2.898a.388.388 0 00-.384-.391z" fill="#fff"/></g></svg>