<svg xmlns="http://www.w3.org/2000/svg" width="70" height="70"><path d="M54.97 16.03a1 1 0 01-.707-1.707l2.06-2.06a1 1 0 111.414 1.414l-2.06 2.06a1 1 0 01-.707.293zm-10.1 10.1a1 1 0 01-.707-1.707l5.15-5.15a1 1 0 111.414 1.414l-5.15 5.15a1 1 0 01-.707.293zM61.98 9.02a1 1 0 01-.707-1.707l7.02-7.02a1 1 0 111.414 1.414l-7.02 7.02a1 1 0 01-.707.293z" fill="#fff"/><path d="M69 14.043a1 1 0 01-1-1V2H56.957a1 1 0 010-2H69a1 1 0 011 1v12.043a1 1 0 01-1 1zM25.129 26.129a1 1 0 01-.707-.293L.293 1.707A1 1 0 111.707.293l24.129 24.129a1 1 0 01-.707 1.707z" fill="#fff"/><path d="M1 14.043a1 1 0 01-1-1V1a1 1 0 011-1h12.043a1 1 0 010 2H2v11.043a1 1 0 01-1 1zM69 70a1 1 0 01-.707-.293L44.164 45.578a1 1 0 111.414-1.414l24.129 24.129A1 1 0 0169 70z" fill="#fff"/><path d="M69 70H56.957a1 1 0 110-2H68V56.957a1 1 0 112 0V69a1 1 0 01-1 1zM1 70a1 1 0 01-.707-1.707l24.129-24.129a1 1 0 111.414 1.414L1.707 69.707A1 1 0 011 70z" fill="#fff"/><path d="M13.043 70H1a1 1 0 01-1-1V56.957a1 1 0 012 0V68h11.043a1 1 0 010 2z" fill="#fff"/></svg>