<svg xmlns="http://www.w3.org/2000/svg" width="51.428" height="36"><g fill="#009688"><path d="M12 9.423h.017a13.561 13.561 0 0010.375-5.267 4.276 4.276 0 016.64-.008 13.572 13.572 0 0010.38 5.275h.016l3.429.006v-.858a1.714 1.714 0 00-1.714-1.714h-1.295a11.427 11.427 0 01-8.82-4.329 6.849 6.849 0 00-10.629 0 11.427 11.427 0 01-8.82 4.329h-1.294a1.714 1.714 0 00-1.714 1.714v.857z"/><path d="M39.428 11.137h-.019a15.278 15.278 0 01-11.708-5.909 2.563 2.563 0 00-3.981.007 15.186 15.186 0 01-11.721 5.9l-3.428.008V18a17.914 17.914 0 0015.818 17.925 11.811 11.811 0 002.65 0A17.914 17.914 0 0042.857 18v-6.857zm-24.725 2.587a72.4 72.4 0 0022.022 0 .857.857 0 11.264 1.694 73.4 73.4 0 01-11.275.862 73.4 73.4 0 01-11.275-.862.857.857 0 01.264-1.694zm-.951 5.733a.857.857 0 011.073-.564 36.434 36.434 0 0021.776 0 .857.857 0 11.509 1.637 38.25 38.25 0 01-11.4 1.745 38.25 38.25 0 01-11.4-1.743.857.857 0 01-.561-1.076zm23.474 7.029a26.229 26.229 0 01-23.024 0 .857.857 0 11.739-1.543 24.542 24.542 0 0021.547 0 .857.857 0 11.739 1.543zM7.954 24.574C3.514 23.528 0 19.628 0 15.428v-4.285a3.429 3.429 0 013.429-3.429h3.54a3.135 3.135 0 00-.111.857v.857H3.429a1.719 1.719 0 00-1.714 1.714v4.286c0 3.386 2.64 6.094 5.674 7.183a19.064 19.064 0 00.566 1.963zm43.474-13.431v4.286c0 4.2-3.514 8.1-7.954 9.146a19.063 19.063 0 00.566-1.963c3.034-1.089 5.674-3.8 5.674-7.183v-4.286A1.719 1.719 0 0048 9.429h-3.429v-.858a3.135 3.135 0 00-.111-.857H48a3.429 3.429 0 013.428 3.429z"/></g></svg>