<svg xmlns="http://www.w3.org/2000/svg" width="20" height="21.966"><g fill="#009688"><path d="M16.074 18.453v2.193l3.371-3.371h-2.193a1.178 1.178 0 00-1.178 1.178z"/><path d="M18.823 0H3.118A1.178 1.178 0 001.94 1.178V9.32a3.45 3.45 0 011.293-.254 5.311 5.311 0 013.626 1.441 5.31 5.31 0 013.626-1.441c2.252 0 4.019 2.15 4.019 4.9A8.9 8.9 0 0110.25 21.2h5.039v-2.747a1.965 1.965 0 011.963-1.963H20V1.178A1.178 1.178 0 0018.823 0zM4.688 7.067h-.785a.393.393 0 110-.785h.785a.393.393 0 110 .785zm0-2.356h-.785a.393.393 0 110-.785h.785a.393.393 0 110 .785zm0-2.356h-.785a.393.393 0 110-.785h.785a.393.393 0 110 .785zm7.852 4.712H6.259a.393.393 0 110-.785h6.281a.393.393 0 110 .785zm2.748-2.356H6.259a.393.393 0 110-.785h9.03a.393.393 0 110 .785zm2.752-2.355H6.259a.393.393 0 110-.785H18.04a.393.393 0 110 .785zm1.178 12.956a.393.393 0 11-.785 0v-.785a.393.393 0 11.785 0zm0-2.356a.393.393 0 11-.785 0V7.46a.393.393 0 11.785 0z"/><path d="M13.718 13.96c0-2.3-1.42-4.11-3.234-4.11a4.567 4.567 0 00-3.322 1.47.392.392 0 01-.608 0 4.567 4.567 0 00-3.322-1.47C1.42 9.852 0 11.66 0 13.96c0 2.657 1.8 6.334 6.859 8 5.059-1.664 6.859-5.341 6.859-8z"/></g></svg>