<svg xmlns="http://www.w3.org/2000/svg" width="20" height="18.929"><g fill="#009688"><path d="M15.234 16.283l-3.371-2.248a.347.347 0 00-.464.075l-.982 1.262a1.052 1.052 0 01-1.349.278l-.181-.1a11.858 11.858 0 01-3.088-2.42 11.843 11.843 0 01-2.42-3.089l-.1-.181a1.052 1.052 0 01.278-1.348l1.262-.982a.347.347 0 00.075-.464L2.647 3.694a.345.345 0 00-.464-.1L.772 4.44a1.357 1.357 0 00-.621.8c-.463 1.687-.074 4.641 4.414 9.129s7.441 4.878 9.129 4.414a1.357 1.357 0 00.8-.622l.846-1.411a.345.345 0 00-.106-.467z"/><path d="M19.943.057a.194.194 0 00-.14-.057H4.836a.194.194 0 00-.2.2v5.2l.849 1.273a1.064 1.064 0 01-.231 1.425l-1.261.982a.341.341 0 00-.092.437l.1.188a9.007 9.007 0 001.192 1.738h14.6a.2.2 0 00.2-.192V.2a.194.194 0 00-.05-.143zm-10.149 6.5L6.13 10.472a.357.357 0 11-.523-.487l3.659-3.919a.357.357 0 01.523.487zm2.526-.281a1.184 1.184 0 01-.714-.236L5.63 1.509A.358.358 0 116.064.94l5.968 4.527a.482.482 0 00.567 0L18.569.94a.357.357 0 01.432.569L13.03 6.036a1.184 1.184 0 01-.71.236zm6.71 4.214a.357.357 0 01-.505-.018l-3.659-3.921a.357.357 0 01.523-.485l3.658 3.919a.357.357 0 01-.017.505z"/></g></svg>