<svg xmlns="http://www.w3.org/2000/svg" width="20" height="20.047"><g fill="#009688"><path d="M17.879 17.703a6.009 6.009 0 01-3.337-.665 3.473 3.473 0 00-1.877-.507 4.223 4.223 0 00-2.665.957 4.223 4.223 0 00-2.665-.957 3.472 3.472 0 00-1.877.507 5.836 5.836 0 01-3.3.665h-.4L0 20.047h2.371a7.563 7.563 0 003.342-.738 3.85 3.85 0 011.623-.434 2.8 2.8 0 012.134.649l.53.522.53-.522a2.8 2.8 0 012.134-.649 3.849 3.849 0 011.623.434 7.761 7.761 0 003.381.738H20l-1.758-2.344zM9.414 11.16v-2a12.54 12.54 0 011.125-5.215l1.078.492a11.134 11.134 0 00-1.031 4.723v2.016a3.835 3.835 0 003.07-3.3l.059-.527-.352-.07a7.865 7.865 0 00.539-2.379A10.572 10.572 0 0115.191.938L15.742 0l-1.078.047A9.49 9.49 0 009.18 2.371a6.135 6.135 0 00-1.828 3.75l-.422-.082-.141.527a3.62 3.62 0 00.527 3.281 3.577 3.577 0 002.098 1.313z"/><path d="M10 11.219a3.313 3.313 0 01-.586-.059v1.855h1.172v-1.844a3 3 0 01-.574.047zm-5.128 3.562a5.931 5.931 0 011.3-.453 2.561 2.561 0 012.174.55 2.878 2.878 0 01.635.753 5.386 5.386 0 011.018.439 5.386 5.386 0 011.018-.439 2.878 2.878 0 01.635-.753 2.573 2.573 0 012.174-.55 5.9 5.9 0 011.3.454 5.406 5.406 0 002.5.578h1.16v-1.172h-1.16a4.3 4.3 0 01-2.021-.477 7.045 7.045 0 00-1.544-.531 3.776 3.776 0 00-3.151.789 4.049 4.049 0 00-.913 1.093 4.051 4.051 0 00-.913-1.093 3.773 3.773 0 00-3.151-.789 7.043 7.043 0 00-1.544.531 4.3 4.3 0 01-2.021.477H1.172v1.168h1.2a5.4 5.4 0 002.5-.575z"/></g></svg>