<svg xmlns="http://www.w3.org/2000/svg" width="20" height="19.979"><g fill="#009688"><path d="M6.076 10.346a.357.357 0 10.357.357.357.357 0 00-.357-.357zm8.905 7.051a1.333 1.333 0 01-.584-.56 23.76 23.76 0 01-.73-1.577 6.388 6.388 0 01-.931.54c.461.6.825 1.149 1.016 1.449a1.19 1.19 0 01.175.734.714.714 0 101.331-.314.7.7 0 00-.278-.272zm-9.391-.53a1.189 1.189 0 01-.547.517.714.714 0 10.938 1 .7.7 0 00.1-.376 1.331 1.331 0 01.193-.785c.234-.361.583-.874 1-1.42a6.441 6.441 0 01-.932-.539c-.278.654-.554 1.22-.752 1.603zM5.024 2.582a1.332 1.332 0 01.584.559c.2.383.464.941.73 1.578a6.428 6.428 0 01.932-.54 21.125 21.125 0 01-1.017-1.45 1.19 1.19 0 01-.175-.732.714.714 0 10-1.331.314.7.7 0 00.278.271zm9.39.53a1.191 1.191 0 01.548-.517.714.714 0 10-.937-1 .7.7 0 00-.1.376 1.331 1.331 0 01-.193.785c-.234.361-.583.874-1 1.42a6.441 6.441 0 01.932.539c.272-.658.547-1.224.746-1.607z"/><circle cx="1.071" cy="1.071" r="1.071" transform="translate(7.86 6.777)"/><path d="M3.601 10.527A6.398 6.398 0 013.6 9.452c-.706.092-1.332.136-1.762.155a1.193 1.193 0 01-.721-.214.714.714 0 00-.94 1.06.732.732 0 00.919.146 1.339 1.339 0 01.776-.226c.429.021 1.047.066 1.728.154z"/><circle cx=".357" cy=".357" r=".357" transform="translate(12.499 8.562)"/><path d="M19.825 9.527a.733.733 0 00-.919-.146 1.324 1.324 0 01-.776.226 22.54 22.54 0 01-1.728-.156q.023.267.023.538c0 .181-.008.36-.023.538.753-.1 1.407-.14 1.762-.156a1.2 1.2 0 01.721.214.714.714 0 00.94-1.058z"/><path d="M18.393 14.009a.682.682 0 00-.385-.094 1.287 1.287 0 01-.771-.191c-.565-.365-1.1-.745-1.589-1.129a.717.717 0 01-.231-.793 5.727 5.727 0 000-3.625.717.717 0 01.231-.794c.637-.5 1.228-.9 1.611-1.144a1.2 1.2 0 01.737-.175.732.732 0 00.514-.178.714.714 0 10-1.1-.872 1.327 1.327 0 01-.553.579c-.369.187-1.261.58-1.761.8a.716.716 0 01-.821-.187 5.691 5.691 0 00-3.124-1.805.714.714 0 01-.575-.618c-.063-.554-.171-1.546-.19-1.958a1.186 1.186 0 01.214-.714.714.714 0 10-1.309-.4.7.7 0 00.107.375 1.306 1.306 0 01.224.772c-.021.41-.128 1.38-.189 1.921a.714.714 0 01-.573.617 5.7 5.7 0 00-3.128 1.807.714.714 0 01-.819.187c-.51-.221-1.42-.621-1.788-.813a1.193 1.193 0 01-.518-.548.715.715 0 10-.995.941.691.691 0 00.383.093 1.275 1.275 0 01.775.192c.567.366 1.1.746 1.589 1.129a.717.717 0 01.231.794 5.727 5.727 0 000 3.624.717.717 0 01-.231.794c-.638.5-1.228.9-1.611 1.145a1.208 1.208 0 01-.736.175.729.729 0 00-.514.178.714.714 0 00.828 1.154.7.7 0 00.275-.282 1.327 1.327 0 01.554-.579c.369-.187 1.261-.58 1.761-.8a.71.71 0 01.282-.059.722.722 0 01.54.245 5.691 5.691 0 003.125 1.806.714.714 0 01.574.618c.063.552.171 1.541.19 1.956a1.2 1.2 0 01-.214.717.714.714 0 101.309.4.7.7 0 00-.107-.376 1.3 1.3 0 01-.224-.77c.027-.525.087-1.33.221-2.19a.36.36 0 01.3-.307 5.669 5.669 0 003.358-1.851.714.714 0 01.821-.187c.511.222 1.423.623 1.788.813a1.19 1.19 0 01.517.548.716.716 0 101-.941zM6.076 11.774a1.071 1.071 0 111.071-1.071 1.071 1.071 0 01-1.071 1.071zm1.071-3.925a1.784 1.784 0 111.784 1.784 1.784 1.784 0 01-1.784-1.785zm3.212 6.78a2.141 2.141 0 112.141-2.137 2.141 2.141 0 01-2.141 2.137zm2.498-4.637a1.071 1.071 0 111.071-1.071 1.071 1.071 0 01-1.071 1.071z"/><path d="M10.358 11.06a1.427 1.427 0 101.427 1.427 1.427 1.427 0 00-1.427-1.427z"/></g></svg>