<svg xmlns="http://www.w3.org/2000/svg" width="36" height="36"><path d="M28.125 14.625a7.859 7.859 0 00-2.742 15.23A3.365 3.365 0 0122.5 31.5a9 9 0 01-8.841-7.432l1.552-2.328a10.439 10.439 0 005.522-5.066 14.921 14.921 0 001.767-6.549v-6.75a2.25 2.25 0 00-2.25-2.25h-.878a3.369 3.369 0 10-2.5 5.625A3.336 3.336 0 0018 6.543v3.582a10.721 10.721 0 01-1.3 4.544 6.032 6.032 0 01-10.836-.1A11.679 11.679 0 014.5 9.75V6.543a3.336 3.336 0 001.125.207 3.375 3.375 0 10-2.5-5.625H2.25A2.25 2.25 0 000 3.375V9.75a15.835 15.835 0 001.819 6.784 10.629 10.629 0 005.409 5.115l1.947 2.92A13.508 13.508 0 0022.5 36a7.868 7.868 0 007.595-5.905 7.858 7.858 0 00-1.97-15.47zm0 11.25A3.375 3.375 0 1131.5 22.5a3.375 3.375 0 01-3.375 3.375z" fill="#009688"/></svg>