<svg xmlns="http://www.w3.org/2000/svg" width="20" height="20"><circle cx=".586" cy=".586" r=".586" transform="translate(9.414 3.516)" fill="#009688"/><path d="M7.071 9.654v-.865a2.933 2.933 0 012.93-2.93A1.758 1.758 0 1111.758 4.1 1.76 1.76 0 0110 5.858a2.933 2.933 0 012.93 2.93v.865a5.273 5.273 0 10-5.859 0zM0 15.234h5.859V20H0zm7.07 0h5.859V20H7.07zm7.071 0H20V20h-5.859z" fill="#009688"/><path d="M3.516 12.89h5.9v1.172h1.172V12.89h5.9v1.172h1.172v-2.344h-7.07v-1.229a5.6 5.6 0 001.172-.267V8.788a1.758 1.758 0 00-3.516 0v1.434a5.6 5.6 0 001.172.267v1.229H2.344v2.344h1.172z" fill="#009688"/></svg>