<svg xmlns="http://www.w3.org/2000/svg" width="40" height="40"><path fill="#7d3daf" d="M0 0h40v40H0z"/><g fill="#fff"><path d="M32.65 12.896l-.008-.032a9.131 9.131 0 00-6.165-5.932l-.03-.006a34.259 34.259 0 00-12.9 0l-.031.006a9.135 9.135 0 00-6.165 5.932l-.007.032a25.24 25.24 0 000 10.873l.007.032a9.21 9.21 0 005.825 5.845v2.88a1.159 1.159 0 002 .8l2.922-3.03c.634.035 1.268.055 1.9.055a34.369 34.369 0 006.448-.612l.03-.006a9.131 9.131 0 006.165-5.932l.008-.032a25.24 25.24 0 00.001-10.873zm-2.312 10.35a6.906 6.906 0 01-4.352 4.167 31.933 31.933 0 01-6.859.554.162.162 0 00-.121.049l-2.135 2.188-2.269 2.329a.266.266 0 01-.457-.183v-4.778a.165.165 0 00-.134-.161 6.908 6.908 0 01-4.352-4.167 22.9 22.9 0 010-9.827 6.908 6.908 0 014.352-4.167 31.907 31.907 0 0111.975 0 6.9 6.9 0 014.352 4.167 22.88 22.88 0 010 9.826z"/><path d="M23.78 25.449c-.267-.081-.522-.136-.758-.234a17.226 17.226 0 01-6.491-4.338 16.847 16.847 0 01-2.483-3.8c-.319-.648-.587-1.321-.861-1.99a1.726 1.726 0 01.505-1.7 3.991 3.991 0 011.337-1 .858.858 0 011.074.255 13.845 13.845 0 011.661 2.325 1.107 1.107 0 01-.31 1.5c-.126.085-.24.186-.357.282a1.171 1.171 0 00-.27.284.779.779 0 00-.052.684 6.191 6.191 0 003.477 3.849 1.77 1.77 0 00.891.216c.545-.064.721-.661 1.1-.973a1.039 1.039 0 011.252-.055c.4.254.792.527 1.179.8a13.492 13.492 0 011.109.845.88.88 0 01.263 1.089 3.684 3.684 0 01-1.583 1.744 3.82 3.82 0 01-.684.218c-.266-.087.233-.073.001-.001zm-3.773-13.91a6.512 6.512 0 016.4 5.385c.1.54.13 1.092.173 1.64a.385.385 0 01-.361.452c-.257 0-.372-.212-.389-.442-.033-.456-.056-.914-.119-1.366a5.727 5.727 0 00-4.612-4.787c-.358-.064-.724-.081-1.086-.119-.229-.024-.529-.038-.58-.323a.391.391 0 01.386-.441h.186c3.207.091-.06.001.002.001z"/><path d="M24.877 17.853a1.471 1.471 0 01-.032.223.364.364 0 01-.685.037.969.969 0 01-.038-.31 3.882 3.882 0 00-.491-1.948 3.624 3.624 0 00-1.52-1.426 4.374 4.374 0 00-1.212-.372c-.183-.03-.367-.049-.551-.074a.349.349 0 01-.331-.392.345.345 0 01.384-.34 5.038 5.038 0 012.1.547 4.247 4.247 0 012.311 3.3c.01.067.026.134.031.2.013.167.02.334.033.553-.004.042-.011-.218.001.002z"/><path d="M22.884 17.775a.4.4 0 01-.439-.389 4.039 4.039 0 00-.075-.512 1.44 1.44 0 00-.531-.834 1.387 1.387 0 00-.433-.209c-.2-.057-.4-.041-.6-.089a.366.366 0 01-.3-.425.385.385 0 01.406-.31 2.2 2.2 0 012.257 2.195 1.016 1.016 0 010 .311.319.319 0 01-.286.262c-.267.005.123-.008.001 0z"/></g></svg>