<svg xmlns="http://www.w3.org/2000/svg" width="43.144" height="36" viewBox="0 0 43.144 36"><g transform="translate(0 14.304)"><path d="M13055.912,1938.169H13059v-6.2h37.035v6.167h3.017v-10.928a4.569,4.569,0,0,0-.769-2.62,3.923,3.923,0,0,0-3.185-1.757c-1.516-.047-36.105-.035-36.105-.035l-.022-10.954a1.5,1.5,0,0,0-1.479-1.342c-1.328,0-1.443.834-1.518,1.272S13055.912,1938.169,13055.912,1938.169Z" transform="translate(-13055.912 -1916.473)" fill="#009688"/><path d="M13107.8,1958.443h-3.868v6.028h9.243a4.908,4.908,0,0,0-.584-2.609,6.324,6.324,0,0,0-2.677-2.744A5.869,5.869,0,0,0,13107.8,1958.443Z" transform="translate(-13099.31 -1959.801)" fill="#009688"/><path d="M13279.926,1817.767v2.836h4.779v4.737a15.965,15.965,0,0,0,2.895,0V1820.6h4.678v-2.836h-4.678V1813h-2.895v4.766Z" transform="translate(-13256.332 -1827.305)" fill="#009688"/></g></svg>