<svg xmlns="http://www.w3.org/2000/svg" width="21" height="21" viewBox="0 0 21 21">
  <g id="calendar" transform="translate(-32 -32)">
    <path id="Контур_178" data-name="Контур 178" d="M384,392h3v2.25h-3Z" transform="translate(-335.5 -343.125)" fill="#009688"/>
    <path id="Контур_179" data-name="Контур 179" d="M304,264h3v2.25h-3Z" transform="translate(-259.25 -221.125)" fill="#009688"/>
    <path id="Контур_180" data-name="Контур 180" d="M224,330.25h10.5V328H224Zm3.375-1.5h6.375v.75h-6.375Zm-2.625,0h1.875v.75H224.75Z" transform="translate(-183 -282.125)" fill="#009688"/>
    <path id="Контур_181" data-name="Контур 181" d="M384,264h3v2.25h-3Z" transform="translate(-335.5 -221.125)" fill="#009688"/>
    <path id="Контур_182" data-name="Контур 182" d="M304,392h3v2.25h-3Z" transform="translate(-259.25 -343.125)" fill="#009688"/>
    <path id="Контур_183" data-name="Контур 183" d="M234.5,200H224v2.25h10.5Zm-7.875,1.5H224.75v-.75h1.875Zm7.125,0h-6.375v-.75h6.375Z" transform="translate(-183 -160.125)" fill="#009688"/>
    <rect id="Прямоугольник_752" data-name="Прямоугольник 752" width="1" height="2" rx="0.5" transform="translate(46 32)" fill="#009688"/>
    <rect id="Прямоугольник_753" data-name="Прямоугольник 753" width="2" height="2" rx="1" transform="translate(50 32)" fill="#009688"/>
    <rect id="Прямоугольник_754" data-name="Прямоугольник 754" width="2" height="2" rx="1" transform="translate(33 32)" fill="#009688"/>
    <path id="Контур_184" data-name="Контур 184" d="M144,200h3v2.25h-3Z" transform="translate(-106.75 -160.125)" fill="#009688"/>
    <rect id="Прямоугольник_755" data-name="Прямоугольник 755" width="1" height="2" rx="0.5" transform="translate(38 32)" fill="#009688"/>
    <rect id="Прямоугольник_756" data-name="Прямоугольник 756" width="1" height="2" rx="0.5" transform="translate(42 32)" fill="#009688"/>
    <path id="Контур_185" data-name="Контур 185" d="M52.25,64v.188A1.312,1.312,0,0,1,50.937,65.5h-.375a1.313,1.313,0,0,1-1.312-1.312V64H48.125v.188A1.313,1.313,0,0,1,46.813,65.5h-.375a1.313,1.313,0,0,1-1.312-1.312V64H44v.188A1.312,1.312,0,0,1,42.688,65.5h-.375A1.313,1.313,0,0,1,41,64.188V64H39.875v.188A1.313,1.313,0,0,1,38.563,65.5h-.375a1.313,1.313,0,0,1-1.312-1.312V64H35.75v.188A1.313,1.313,0,0,1,34.438,65.5h-.375a1.313,1.313,0,0,1-1.312-1.312V64h-.281a.469.469,0,0,0-.469.469V66.25H53V64.469A.469.469,0,0,0,52.531,64Z" transform="translate(0 -30.5)" fill="#009688"/>
    <path id="Контур_186" data-name="Контур 186" d="M74.5,392H64v2.25H74.5Zm-3.375,1.5H64.75v-.75h6.375Zm2.625,0H71.875v-.75H73.75Z" transform="translate(-30.5 -343.125)" fill="#009688"/>
    <path id="Контур_187" data-name="Контур 187" d="M64,200h3v2.25H64Z" transform="translate(-30.5 -160.125)" fill="#009688"/>
    <path id="Контур_188" data-name="Контур 188" d="M64,328h3v2.25H64Z" transform="translate(-30.5 -282.125)" fill="#009688"/>
    <path id="Контур_189" data-name="Контур 189" d="M74.5,264H64v2.25H74.5Zm-3.375,1.5H64.75v-.75h6.375Zm2.625,0H71.875v-.75H73.75Z" transform="translate(-30.5 -221.125)" fill="#009688"/>
    <path id="Контур_190" data-name="Контур 190" d="M144,328h3v2.25h-3Z" transform="translate(-106.75 -282.125)" fill="#009688"/>
    <path id="Контур_191" data-name="Контур 191" d="M32.469,144.5H52.531a.469.469,0,0,0,.469-.469V128H32v16.031A.469.469,0,0,0,32.469,144.5Zm17.156-15.375h.75v.75h-.75Zm-3.75,0h.75v.75h-.75Zm-3.75,0h.75v.75h-.75Zm-3.75,0h.75v.75h-.75Zm-3.75,0h.75v.75h-.75ZM32.75,131a.375.375,0,0,1,.375-.375h18.75a.375.375,0,0,1,.375.375v12a.375.375,0,0,1-.375.375H33.125A.375.375,0,0,1,32.75,143Z" transform="translate(0 -91.5)" fill="#009688"/>
  </g>
</svg>
