<svg xmlns="http://www.w3.org/2000/svg" width="20.275" height="21" viewBox="0 0 20.275 21">
  <g id="caduceus" transform="translate(-8.007)">
    <g id="Сгруппировать_130" data-name="Сгруппировать 130" transform="translate(13.166 8.004)">
      <g id="Сгруппировать_129" data-name="Сгруппировать 129" transform="translate(0)">
        <path id="Контур_93" data-name="Контур 93" d="M123.474,179.571a2.068,2.068,0,0,0,.784-.355,1.6,1.6,0,0,0,.726-1.945c-.361-.592-1.35-.553-2.109.122a2.373,2.373,0,0,0-.881,1.971,2.663,2.663,0,0,0,1.106,2.11,5.474,5.474,0,0,1,1.592-.839l.008,0A2.134,2.134,0,0,1,123.474,179.571Zm-.117-1.675a.362.362,0,1,1,.362.368A.364.364,0,0,1,123.357,177.9Z" transform="translate(-121.993 -176.855)" fill="#009688"/>
      </g>
    </g>
    <g id="Сгруппировать_132" data-name="Сгруппировать 132" transform="translate(14.167 8.004)">
      <g id="Сгруппировать_131" data-name="Сгруппировать 131">
        <path id="Контур_94" data-name="Контур 94" d="M153.089,179.363a2.38,2.38,0,0,0-.883-1.972c-.759-.673-1.748-.715-2.109-.122a1.6,1.6,0,0,0,.726,1.945,2.07,2.07,0,0,0,.784.355,1.654,1.654,0,0,1-.779.835c-.573.342-.882.384-4.545,1.6a2.748,2.748,0,0,0-2.162,2.448,2.249,2.249,0,0,0,.933,1.785,4.54,4.54,0,0,1,1.264-.9c-.573-.29-.749-.509-.749-.885,0-.62,1.24-.975,1.812-1.164v1.57l1.448-.646v-.923c.573.19,1.81.544,1.81,1.163,0,1.03-2.949,1.637-4.2,2.5a1.913,1.913,0,0,0-.936,1.589,1.362,1.362,0,0,0,.678,1.257.21.21,0,0,0,.314-.269c-.42-.841.026-1.261.892-1.624v1.215a.724.724,0,1,0,1.448,0V187.91c.832.349,1.356.842.89,1.623a.21.21,0,0,0,.313.269,1.374,1.374,0,0,0,.664-1.248,1.99,1.99,0,0,0-.931-1.594c1.232-.445,2.323-1.195,2.323-2.506a2.522,2.522,0,0,0-1.571-2.2,5.063,5.063,0,0,0,1.009-.465A2.8,2.8,0,0,0,153.089,179.363Zm-1.728-1.1a.368.368,0,1,1,.362-.368A.365.365,0,0,1,151.361,178.263Z" transform="translate(-144.119 -176.854)" fill="#009688"/>
      </g>
    </g>
    <g id="Сгруппировать_134" data-name="Сгруппировать 134" transform="translate(16.696)">
      <g id="Сгруппировать_133" data-name="Сгруппировать 133">
        <path id="Контур_95" data-name="Контур 95" d="M211.593,1.45h-4.959A3.191,3.191,0,0,0,204.3,2.508c-.682.682-1.037,2.2-2.123,2.2V2.7a1.448,1.448,0,1,0-1.448,0v8.63l1.448-.464V7.235a1.61,1.61,0,0,0,.723-.728,1.484,1.484,0,0,0,1.264.736,1.442,1.442,0,0,0,1.256-.74,2.423,2.423,0,0,0,3.273.016l-1.231-1.231.564.234a2.172,2.172,0,0,0,2.838-1.176l-1.748-.724A2.2,2.2,0,0,0,211.593,1.45Z" transform="translate(-200.007)" fill="#009688"/>
      </g>
    </g>
    <g id="Сгруппировать_136" data-name="Сгруппировать 136" transform="translate(8.007 1.45)">
      <g id="Сгруппировать_135" data-name="Сгруппировать 135" transform="translate(0)">
        <path id="Контур_96" data-name="Контур 96" d="M15.3,33.089a3.191,3.191,0,0,0-2.331-1.058H8.007A2.2,2.2,0,0,0,10.479,34.2l-1.748.724A2.172,2.172,0,0,0,11.57,36.1l.564-.234L10.9,37.1a2.423,2.423,0,0,0,3.273-.016,1.442,1.442,0,0,0,1.256.74h.016A1.324,1.324,0,0,0,16.7,36.469V35.012C16.127,34.544,15.8,33.592,15.3,33.089Z" transform="translate(-8.007 -32.031)" fill="#009688"/>
      </g>
    </g>
  </g>
</svg>
