<svg id="question" xmlns="http://www.w3.org/2000/svg" width="21.228" height="21.228" viewBox="0 0 21.228 21.228">
  <path id="Контур_91" data-name="Контур 91" d="M18.119,3.109a10.615,10.615,0,0,0-16.7,12.814L0,21.228l5.305-1.422a10.615,10.615,0,0,0,12.814-16.7ZM10.614,19.984a9.349,9.349,0,0,1-4.891-1.377l-.228-.14-3.736,1,1-3.736-.14-.228a9.371,9.371,0,1,1,7.994,4.479Z" fill="#1050ff"/>
  <rect id="Прямоугольник_183" data-name="Прямоугольник 183" width="1.244" height="1.244" transform="translate(9.992 14.656)" fill="#1050ff"/>
  <path id="Контур_92" data-name="Контур 92" d="M184.11,128.5a3.113,3.113,0,0,0-3.11,3.11h1.244a1.866,1.866,0,1,1,3.256,1.244l-2.012,2.25v1.481h1.244v-1.006l1.7-1.9a3.109,3.109,0,0,0-2.317-5.183Z" transform="translate(-173.496 -123.172)" fill="#1050ff"/>
</svg>
