<svg xmlns="http://www.w3.org/2000/svg" width="21.413" height="21" viewBox="0 0 21.413 21"><g transform="translate(0 -4.927)"><path d="M59.941,139.11a.966.966,0,0,0-1.1.635l-1.1-.481c0-.075,0-.15,0-.222a7.686,7.686,0,0,0-.241-1.912L58,136.8a1.1,1.1,0,0,0,1.75-1.228l-.232-.624a1.106,1.106,0,0,0-1.38-.679,1.1,1.1,0,0,0-.758,1.044l-.56.078c-.077-.141-.161-.283-.25-.425a.314.314,0,0,0-.532.335c.106.168.2.335.288.5a.439.439,0,0,0,.449.232l1.01-.141a.314.314,0,0,0,.252-.417.471.471,0,0,1,.3-.607.485.485,0,0,1,.594.3l.232.624a.488.488,0,0,1-.246.615.473.473,0,0,1-.591-.187.314.314,0,0,0-.445-.1l-.838.568a.438.438,0,0,0-.176.479,7.049,7.049,0,0,1,.253,1.876c0,.1,0,.213-.008.324a.441.441,0,0,0,.262.422l1.57.686a.314.314,0,0,0,.434-.227l.05-.254a.337.337,0,0,1,.662.13l-.258,1.312a.337.337,0,0,1-.412.262.351.351,0,0,1-.246-.41l.007-.035a.314.314,0,0,0-.323-.374l-1.7.077a.441.441,0,0,0-.4.3,7.011,7.011,0,0,1-.621,1.364.439.439,0,0,0,.041.505l.751.893a.314.314,0,0,0,.457.025.47.47,0,0,1,.7.627l-.218.285a.486.486,0,0,1-.651.117.473.473,0,0,1-.179-.538.314.314,0,0,0-.171-.388l-1.083-.475a.438.438,0,0,0-.5.106,7.057,7.057,0,0,1-1.657,1.342.441.441,0,0,0-.212.449l.277,1.69a.314.314,0,0,0,.427.241l.24-.1a.337.337,0,0,1,.444.2.351.351,0,0,1-.211.43l-1.225.49a.337.337,0,0,1-.444-.2.351.351,0,0,1,.211-.43l.033-.013a.314.314,0,0,0,.139-.474l-.988-1.384a.441.441,0,0,0-.467-.169,7.074,7.074,0,0,1-3.182.083.441.441,0,0,0-.457.193l-.989,1.551a.314.314,0,0,0,.157.464l.035.013a.478.478,0,0,1,.286.613.313.313,0,0,0-.019.108.245.245,0,0,1-.371.259l-1.215-.443a.481.481,0,0,1-.289-.6.463.463,0,0,1,.243-.267.512.512,0,0,1,.393-.02l.028.01a.314.314,0,0,0,.42-.261l.2-1.818a.441.441,0,0,0-.235-.437A7.036,7.036,0,0,1,44.9,143.8a.44.44,0,0,0-.488-.109l-1.482.608a.314.314,0,0,0-.158.439.382.382,0,0,1-.128.5.4.4,0,0,1-.538-.118l-.38-.547a.4.4,0,0,1,.066-.536.384.384,0,0,1,.544.07.314.314,0,0,0,.486.019l1.044-1.18a.439.439,0,0,0,.055-.5,7.035,7.035,0,0,1-.31-.634.314.314,0,0,0-.578.248c.084.2.176.387.274.572l-.748.845a1.014,1.014,0,0,0-1.156.069,1.024,1.024,0,0,0-.193,1.388l.38.547a1.029,1.029,0,0,0,1.4.285,1.008,1.008,0,0,0,.447-.994l1.093-.448a7.661,7.661,0,0,0,1.922,1.467l-.15,1.35a1.144,1.144,0,0,0-.524.111,1.087,1.087,0,0,0-.567.63,1.113,1.113,0,0,0,.668,1.4l1.215.443a1.059,1.059,0,0,0,.362.066.839.839,0,0,0,.485-.148.9.9,0,0,0,.366-.713,1.109,1.109,0,0,0-.375-1.2l.738-1.158a7.734,7.734,0,0,0,3.209-.084l.717,1a.964.964,0,0,0,1,1.613l1.225-.49A.974.974,0,0,0,55.4,147.4a.958.958,0,0,0-.512-.563.971.971,0,0,0-.635-.059l-.194-1.184a7.683,7.683,0,0,0,1.6-1.294l.731.321a1.1,1.1,0,0,0,1.981.715l.218-.285A1.1,1.1,0,0,0,57.23,143.4l-.482-.573a7.648,7.648,0,0,0,.567-1.246l1.233-.056a.964.964,0,0,0,1.9.035l.258-1.312A.967.967,0,0,0,59.941,139.11Z" transform="translate(-39.308 -123.866)" fill="#f8f8f8"/><path d="M2.025,16.093l1.178.272c.026.164.057.33.095.5a.314.314,0,1,0,.613-.138c-.043-.193-.078-.386-.1-.574a.441.441,0,0,0-.335-.367L1.8,15.4a.314.314,0,0,0-.385.3l0,.2a.4.4,0,0,1-.4.4A.387.387,0,0,1,.629,15.9L.64,14.689a.423.423,0,0,1,.13-.3.377.377,0,0,1,.275-.11.4.4,0,0,1,.383.4.314.314,0,0,0,.386.308l1.657-.388a.44.44,0,0,0,.334-.368,6.96,6.96,0,0,1,.874-2.562.439.439,0,0,0-.045-.5l-.79-.928a.314.314,0,0,0-.49.014l-.068.091a.307.307,0,0,1-.442.05A.32.32,0,0,1,2.8,9.955l.526-.7a.307.307,0,0,1,.5.349.314.314,0,0,0,.14.457l1.1.478a.438.438,0,0,0,.5-.107A7.052,7.052,0,0,1,7.31,9.053a.441.441,0,0,0,.217-.446L7.273,6.913a.314.314,0,0,0-.424-.247l-.241.093a.337.337,0,0,1-.441-.209.351.351,0,0,1,.217-.427L7.615,5.65a.337.337,0,0,1,.441.209.351.351,0,0,1-.217.427L7.806,6.3a.314.314,0,0,0-.145.472l.969,1.4a.441.441,0,0,0,.464.175,7.068,7.068,0,0,1,1.68-.2h0a.44.44,0,0,0,.414-.291l.321-.9a.314.314,0,0,0-.2-.406A.509.509,0,0,1,10.953,6a.5.5,0,0,1,.191-.331.541.541,0,0,1,.4-.112l.441.055a.523.523,0,0,1,.464.563.506.506,0,0,1-.378.438.314.314,0,0,0-.233.34l.112.973a.438.438,0,0,0,.342.378,6.982,6.982,0,0,1,2,.777.44.44,0,0,0,.5-.039l1.33-1.079a.314.314,0,0,0,0-.49l-.2-.161a.337.337,0,0,1-.044-.487.351.351,0,0,1,.478-.03l1.033.82a.337.337,0,0,1,.044.487.351.351,0,0,1-.477.03l-.028-.022a.314.314,0,0,0-.481.115l-.712,1.546a.441.441,0,0,0,.085.489c.045.046.089.093.141.15a.314.314,0,1,0,.462-.426l-.063-.068L16.864,8.8a.964.964,0,0,0,.9-1.67l-1.033-.82a.974.974,0,0,0-1.342.109.958.958,0,0,0-.235.724.971.971,0,0,0,.264.58l-.931.756a7.608,7.608,0,0,0-1.932-.751l-.069-.6a1.138,1.138,0,0,0-.426-2.129l-.441-.055a1.175,1.175,0,0,0-.864.24,1.119,1.119,0,0,0-.428.753,1.138,1.138,0,0,0,.494,1.077l-.182.509A7.7,7.7,0,0,0,9.073,7.7l-.7-1.014a.964.964,0,0,0-.98-1.626l-1.231.473a.974.974,0,0,0-.588,1.211.958.958,0,0,0,.5.57.971.971,0,0,0,.634.067l.178,1.187A7.676,7.676,0,0,0,5.206,9.912L4.5,9.606A.941.941,0,0,0,4.14,8.7.936.936,0,0,0,2.83,8.88l-.526.7a.943.943,0,0,0,.136,1.3.928.928,0,0,0,.706.211.939.939,0,0,0,.446-.175l.476.559A7.579,7.579,0,0,0,3.2,14.013L1.983,14.3a1.029,1.029,0,0,0-.922-.646,1,1,0,0,0-.728.286,1.056,1.056,0,0,0-.322.745L0,15.9A1.016,1.016,0,0,0,1.016,16.92a1.033,1.033,0,0,0,1.009-.828Z" transform="translate(0)" fill="#f8f8f8"/><path d="M146.181,134.011a.314.314,0,1,0-.294-.555,1.616,1.616,0,0,1-2.035-.25,1.352,1.352,0,0,1-.233-1.137,2.164,2.164,0,0,1,2.088-1.646,1.352,1.352,0,0,1,1.051.492,1.519,1.519,0,0,1-.012,1.74.314.314,0,0,0,.536.329,2.138,2.138,0,0,0-.03-2.458,1.969,1.969,0,0,0-1.527-.731A2.791,2.791,0,0,0,143,131.938a1.97,1.97,0,0,0,.354,1.656,2,2,0,0,0,1.6.729A2.62,2.62,0,0,0,146.181,134.011Z" transform="translate(-136.963 -119.634)" fill="#f8f8f8"/><path d="M303.681,136.164a1.364,1.364,0,1,0-1.352,1.182A1.277,1.277,0,0,0,303.681,136.164Zm-2.075,0a.749.749,0,1,1,.723.553A.656.656,0,0,1,301.606,136.164Z" transform="translate(-288.364 -124.605)" fill="#f8f8f8"/><path d="M212.233,258.971a1.448,1.448,0,1,0-1.448,1.448A1.45,1.45,0,0,0,212.233,258.971Zm-2.268,0a.82.82,0,1,1,.82.82A.821.821,0,0,1,209.965,258.971Z" transform="translate(-200.564 -242.011)" fill="#f8f8f8"/><path d="M324.732,252.236a1.126,1.126,0,1,0-1.126,1.126A1.128,1.128,0,0,0,324.732,252.236Zm-1.624,0a.5.5,0,1,1,.5.5A.5.5,0,0,1,323.109,252.236Z" transform="translate(-308.966 -235.867)" fill="#f8f8f8"/><path d="M252.569,348.4a1.1,1.1,0,1,0-1.1-1.1A1.1,1.1,0,0,0,252.569,348.4Zm0-1.579a.475.475,0,1,1-.475.475A.476.476,0,0,1,252.569,346.826Z" transform="translate(-240.927 -326.969)" fill="#f8f8f8"/><path d="M133.955,302.627a1.137,1.137,0,1,0-1.137-1.137A1.138,1.138,0,0,0,133.955,302.627Zm0-1.645a.508.508,0,1,1-.508.508A.509.509,0,0,1,133.955,300.983Z" transform="translate(-127.252 -283.047)" fill="#f8f8f8"/><path d="M291.939,226.427a.314.314,0,0,0-.314-.314h-.278a.314.314,0,0,0,0,.629h.278A.314.314,0,0,0,291.939,226.427Z" transform="translate(-278.837 -211.917)" fill="#f8f8f8"/><path d="M202.839,357.842h.285a.314.314,0,1,0,0-.629h-.285a.314.314,0,0,0,0,.629Z" transform="translate(-194.038 -337.523)" fill="#f8f8f8"/><path d="M133.407,248.62a.314.314,0,1,0,0-.629h-.275a.314.314,0,1,0,0,.629Z" transform="translate(-127.252 -232.879)" fill="#f8f8f8"/><path d="M264.152,117.4a.314.314,0,0,0,0-.629h-.383a.314.314,0,0,0,0,.629Z" transform="translate(-252.415 -107.16)" fill="#f8f8f8"/><path d="M322.793,332.8a.314.314,0,1,0,0,.629h.423a.314.314,0,1,0,0-.629Z" transform="translate(-308.965 -314.131)" fill="#f8f8f8"/></g></svg>