<svg xmlns="http://www.w3.org/2000/svg" width="328.46" height="479.754" viewBox="0 0 328.46 479.754"><g transform="translate(27.901 -3090.188)"><path d="M143.147,376.31V362.2a.634.634,0,0,0-.65-.65H129.125a.635.635,0,0,0-.65.65v14.021H114.453a.635.635,0,0,0-.65.65v13.372a.635.635,0,0,0,.65.65h14.023v14.02a.634.634,0,0,0,.65.65H142.5a.634.634,0,0,0,.65-.65v-14.02h14.021a.635.635,0,0,0,.65-.65V376.96a.635.635,0,0,0-.65-.65Z" transform="translate(33.969 2728.642)" fill="#dfdfdf"/><path d="M131.11,370.254v-8.325a.374.374,0,0,0-.384-.383H122.84a.374.374,0,0,0-.384.383v8.27h-8.27a.374.374,0,0,0-.384.384v7.887a.375.375,0,0,0,.384.384h8.271v8.269a.374.374,0,0,0,.384.383h7.887a.374.374,0,0,0,.384-.383v-8.269h8.27a.375.375,0,0,0,.384-.384v-7.832a.374.374,0,0,0-.384-.384Z" transform="translate(77.969 3037.642)" fill="#dfdfdf"/><path d="M274.248,442.271V365.1a3.468,3.468,0,0,0-3.556-3.552H197.579a3.471,3.471,0,0,0-3.556,3.552v76.664H117.359a3.472,3.472,0,0,0-3.556,3.556v73.113a3.474,3.474,0,0,0,3.556,3.556h76.673v76.66a3.468,3.468,0,0,0,3.556,3.552H270.7a3.468,3.468,0,0,0,3.556-3.552v-76.66H350.92a3.474,3.474,0,0,0,3.556-3.556v-72.6a3.472,3.472,0,0,0-3.556-3.556Z" transform="translate(-132.58 2828.084)" fill="#dfdfdf"/><path d="M274.248,442.271V365.1a3.468,3.468,0,0,0-3.556-3.552H197.579a3.471,3.471,0,0,0-3.556,3.552v76.664H117.359a3.472,3.472,0,0,0-3.556,3.556v73.113a3.474,3.474,0,0,0,3.556,3.556h76.673v76.66a3.468,3.468,0,0,0,3.556,3.552H270.7a3.468,3.468,0,0,0,3.556-3.552v-76.66H350.92a3.474,3.474,0,0,0,3.556-3.556v-72.6a3.472,3.472,0,0,0-3.556-3.556Z" transform="translate(-141.204 2841.146)" fill="none" stroke="#ccc" stroke-width="1"/><path d="M151.691,380.609V362.385a.819.819,0,0,0-.84-.839H133.586a.82.82,0,0,0-.84.839v18.1h-18.1a.82.82,0,0,0-.84.84v17.265a.82.82,0,0,0,.84.84h18.106v18.1a.819.819,0,0,0,.84.839h17.265a.819.819,0,0,0,.84-.839v-18.1h18.1a.82.82,0,0,0,.84-.84V381.448a.82.82,0,0,0-.84-.84Z" transform="translate(-6.577 3151.067)" fill="none" stroke="#ccc" stroke-width="1"/><path d="M151.691,380.609V362.385a.819.819,0,0,0-.84-.839H133.586a.82.82,0,0,0-.84.839v18.1h-18.1a.82.82,0,0,0-.84.84v17.265a.82.82,0,0,0,.84.84h18.106v18.1a.819.819,0,0,0,.84.839h17.265a.819.819,0,0,0,.84-.839v-18.1h18.1a.82.82,0,0,0,.84-.84V381.448a.82.82,0,0,0-.84-.84Z" transform="translate(129.423 2800.067)" fill="none" stroke="#ccc" stroke-width="1"/></g></svg>