<svg xmlns="http://www.w3.org/2000/svg" width="152.788" height="128.754" viewBox="0 0 152.788 128.754"><g transform="translate(-1691.772 -3138.188)"><path d="M143.147,376.31V362.2a.634.634,0,0,0-.65-.65H129.125a.635.635,0,0,0-.65.65v14.021H114.453a.635.635,0,0,0-.65.65v13.372a.635.635,0,0,0,.65.65h14.023v14.02a.634.634,0,0,0,.65.65H142.5a.634.634,0,0,0,.65-.65v-14.02h14.021a.635.635,0,0,0,.65-.65V376.96a.635.635,0,0,0-.65-.65Z" transform="translate(1577.969 2776.642)" fill="#dfdfdf"/><path d="M151.691,380.609V362.385a.819.819,0,0,0-.84-.839H133.586a.82.82,0,0,0-.84.839v18.1h-18.1a.82.82,0,0,0-.84.84v17.265a.82.82,0,0,0,.84.84h18.106v18.1a.819.819,0,0,0,.84.839h17.265a.819.819,0,0,0,.84-.839v-18.1h18.1a.82.82,0,0,0,.84-.84V381.448a.82.82,0,0,0-.84-.84Z" transform="translate(1673.423 2848.067)" fill="none" stroke="#ccc" stroke-width="1"/></g></svg>