<svg xmlns="http://www.w3.org/2000/svg" width="31.103" height="36" viewBox="0 0 31.103 36"><g transform="translate(-555 -947)"><g transform="translate(563.518 947)"><g transform="translate(0)"><path d="M159.338,0A7.042,7.042,0,0,0,152.3,7.035V10.68a7.034,7.034,0,1,0,14.068,0V7.035A7.042,7.042,0,0,0,159.338,0Z" transform="translate(-152.304)" fill="#009688"/></g></g><g transform="translate(555 965.856)"><g transform="translate(0)"><path d="M65.071,269.921a17.842,17.842,0,0,0-10.138-8.013.28.28,0,0,0-.281.069,29.372,29.372,0,0,1-5.089,3.869,36.544,36.544,0,0,1-5.1-3.869.281.281,0,0,0-.281-.069,17.838,17.838,0,0,0-10.137,8.013.282.282,0,0,0,0,.285,18.039,18.039,0,0,0,31.025,0A.281.281,0,0,0,65.071,269.921Zm-5.946,2.1a.3.3,0,0,1-.3.274H56.917a.328.328,0,0,0-.325.289v1.97a.241.241,0,0,1-.238.273H54.644a.293.293,0,0,1-.3-.273v-1.97a.272.272,0,0,0-.262-.289H52.093a.277.277,0,0,1-.284-.274v-1.7a.283.283,0,0,1,.284-.281H54.08a.266.266,0,0,0,.261-.282v-1.973a.3.3,0,0,1,.3-.278h1.693a.259.259,0,0,1,.257.278v1.978s.15.276.306.276h1.924a.305.305,0,0,1,.3.287Z" transform="translate(-34.007 -261.896)" fill="#009688"/></g></g></g></svg>