<svg xmlns="http://www.w3.org/2000/svg" width="31.103" height="36" viewBox="0 0 31.103 36"><g transform="translate(7.882 0)"><path d="M162.224,49.5l-.485-7.66a5.33,5.33,0,0,0-5.319-4.993h-4.434a5.33,5.33,0,0,0-5.319,4.993l-.485,7.66a3.034,3.034,0,0,0,3.028,3.226H159.2A3.034,3.034,0,0,0,162.224,49.5Z" transform="translate(-146.175 -36.849)" fill="#009688"/><g transform="translate(0.208 4.056)"><path d="M163.525,96.556H163.1a.458.458,0,0,0-.418-.456c-5.688-.512-7.557-2.106-9.109-3.715-.276-.286-2.95.843-2.993,3.468v.7h-.427a1.133,1.133,0,0,0-1.133,1.133v1.255a1.133,1.133,0,0,0,1.133,1.133h.428a6.358,6.358,0,0,0,2.445,4.3,5.249,5.249,0,0,0,7.626,0,6.358,6.358,0,0,0,2.445-4.3h.428a1.133,1.133,0,0,0,1.133-1.133V97.688A1.133,1.133,0,0,0,163.525,96.556Z" transform="translate(-149.019 -92.342)" fill="#009688"/></g></g><path d="M65.071,269.908a17.837,17.837,0,0,0-10.138-8,.281.281,0,0,0-.281.068,29.371,29.371,0,0,1-5.089,3.863,36.543,36.543,0,0,1-5.1-3.863.281.281,0,0,0-.281-.068,17.833,17.833,0,0,0-10.137,8,.281.281,0,0,0,0,.284,18.054,18.054,0,0,0,31.025,0A.28.28,0,0,0,65.071,269.908ZM59.125,272a.294.294,0,0,1-.3.273H56.917a.328.328,0,0,0-.325.288v1.967a.241.241,0,0,1-.238.273H54.644a.293.293,0,0,1-.3-.273v-1.967a.272.272,0,0,0-.262-.288H52.093a.277.277,0,0,1-.284-.273v-1.694a.283.283,0,0,1,.284-.28H54.08a.265.265,0,0,0,.261-.282v-1.969a.3.3,0,0,1,.3-.277h1.693a.258.258,0,0,1,.257.277v1.975s.15.276.306.276h1.924a.3.3,0,0,1,.3.286Z" transform="translate(-34.007 -243.011)" fill="#009688"/></svg>