<svg xmlns="http://www.w3.org/2000/svg" width="30.239" height="37.677" viewBox="0 0 30.239 37.677"><g transform="translate(-843 -451.323)"><g transform="translate(808.993 454)"><g transform="translate(34.007 18.333)"><g transform="translate(0)"><path d="M64.208,269.7a17.346,17.346,0,0,0-9.856-7.79.273.273,0,0,0-.273.067,28.557,28.557,0,0,1-4.948,3.762,35.53,35.53,0,0,1-4.958-3.762.273.273,0,0,0-.273-.067,17.342,17.342,0,0,0-9.855,7.791.274.274,0,0,0,0,.277,17.537,17.537,0,0,0,30.164,0A.273.273,0,0,0,64.208,269.7Z" transform="translate(-34.007 -261.896)" fill="#009688"/></g></g></g><g transform="translate(-41 5.167)"><path d="M161.778,49.15l-.471-7.447a5.182,5.182,0,0,0-5.171-4.854h-4.311a5.182,5.182,0,0,0-5.171,4.854l-.471,7.447a2.95,2.95,0,0,0,2.944,3.136h9.709A2.95,2.95,0,0,0,161.778,49.15Z" transform="translate(745.488 411.926)" fill="#009688"/><g transform="translate(891.866 452.718)"><path d="M163.122,96.439h-.415A.445.445,0,0,0,162.3,96c-5.53-.5-7.347-2.047-8.856-3.612-.268-.278-2.868.819-2.91,3.371v.683h-.415a1.1,1.1,0,0,0-1.1,1.1v1.221a1.1,1.1,0,0,0,1.1,1.1h.417a6.181,6.181,0,0,0,2.377,4.182,5.1,5.1,0,0,0,7.414,0,6.181,6.181,0,0,0,2.377-4.182h.417a1.1,1.1,0,0,0,1.1-1.1V97.54A1.1,1.1,0,0,0,163.122,96.439Z" transform="translate(-149.019 -92.342)" fill="#009688"/></g><path d="M193.564.779,190.424.141a7.078,7.078,0,0,0-2.816,0l-3.141.638a.813.813,0,0,0-.6,1.088l.791,2.066a1.32,1.32,0,0,0,1.233.849h6.246a1.321,1.321,0,0,0,1.233-.849l.79-2.066A.813.813,0,0,0,193.564.779Z" transform="translate(710.524 446.156)" fill="#009688"/><path d="M237.211,12.845h-.417v-.417a.547.547,0,0,0-1.094,0v.417h-.417a.547.547,0,1,0,0,1.094h.417v.416a.547.547,0,0,0,1.094,0v-.416h.417a.547.547,0,1,0,0-1.094Z" transform="translate(663.221 435.12)" fill="#fff"/></g></g></svg>