<svg xmlns="http://www.w3.org/2000/svg" width="40" height="40" viewBox="0 0 40 40"><g transform="translate(-1274.5 -326)"><rect width="40" height="40" transform="translate(1274.5 326)" fill="#1050ff"/><g transform="translate(1267.423 337)"><path d="M31.963,0,29.5,0a4.327,4.327,0,0,0-4.557,4.676V6.832H22.464a.387.387,0,0,0-.387.388v3.124a.387.387,0,0,0,.387.387h2.477v7.882a.387.387,0,0,0,.387.387h3.232a.387.387,0,0,0,.387-.387V10.731h2.9a.387.387,0,0,0,.387-.387V7.219a.388.388,0,0,0-.388-.388h-2.9V5c0-.878.209-1.324,1.354-1.324h1.66a.387.387,0,0,0,.387-.387V.391A.388.388,0,0,0,31.963,0Z" fill="#fff"/></g></g></svg>