<svg xmlns="http://www.w3.org/2000/svg" width="70" height="70" viewBox="0 0 70 70"><path d="M56.97,18.03a1,1,0,0,1-.707-1.707l2.06-2.06a1,1,0,1,1,1.414,1.414l-2.06,2.06A1,1,0,0,1,56.97,18.03Z" transform="translate(-2 -2)" fill="#fff"/><path d="M46.87,28.13a1,1,0,0,1-.707-1.707l5.15-5.15a1,1,0,1,1,1.414,1.414l-5.15,5.15A1,1,0,0,1,46.87,28.13Z" transform="translate(-2 -2)" fill="#fff"/><path d="M63.98,11.02a1,1,0,0,1-.707-1.707l7.02-7.02a1,1,0,1,1,1.414,1.414l-7.02,7.02A1,1,0,0,1,63.98,11.02Z" transform="translate(-2 -2)" fill="#fff"/><path d="M71,16.043a1,1,0,0,1-1-1V4H58.957a1,1,0,0,1,0-2H71a1,1,0,0,1,1,1V15.043A1,1,0,0,1,71,16.043Z" transform="translate(-2 -2)" fill="#fff"/><path d="M27.129,28.129a1,1,0,0,1-.707-.293L2.293,3.707A1,1,0,1,1,3.707,2.293L27.836,26.422a1,1,0,0,1-.707,1.707Z" transform="translate(-2 -2)" fill="#fff"/><path d="M3,16.043a1,1,0,0,1-1-1V3A1,1,0,0,1,3,2H15.043a1,1,0,0,1,0,2H4V15.043a1,1,0,0,1-1,1Z" transform="translate(-2 -2)" fill="#fff"/><path d="M71,72a1,1,0,0,1-.707-.293L46.164,47.578a1,1,0,1,1,1.414-1.414L71.707,70.293A1,1,0,0,1,71,72Z" transform="translate(-2 -2)" fill="#fff"/><path d="M71,72H58.957a1,1,0,1,1,0-2H70V58.957a1,1,0,1,1,2,0V71A1,1,0,0,1,71,72Z" transform="translate(-2 -2)" fill="#fff"/><path d="M3,72a1,1,0,0,1-.707-1.707L26.422,46.164a1,1,0,1,1,1.414,1.414L3.707,71.707A1,1,0,0,1,3,72Z" transform="translate(-2 -2)" fill="#fff"/><path d="M15.043,72H3a1,1,0,0,1-1-1V58.957a1,1,0,0,1,2,0V70H15.043a1,1,0,0,1,0,2Z" transform="translate(-2 -2)" fill="#fff"/></svg>