<svg xmlns="http://www.w3.org/2000/svg" width="19" height="19" viewBox="0 0 19 19">
  <g id="link" transform="translate(0.993 1)">
    <g id="Сгруппировать_146" data-name="Сгруппировать 146" transform="translate(-0.993 -1)">
      <g id="Сгруппировать_145" data-name="Сгруппировать 145" transform="translate(0 0)">
        <path id="Контур_142" data-name="Контур 142" d="M6.883,184.863,4.644,187.1a2.375,2.375,0,0,1-3.359-3.358l4.478-4.479a2.374,2.374,0,0,1,3.358,0,.792.792,0,1,0,1.12-1.12,3.958,3.958,0,0,0-5.6,0L.166,182.624a3.958,3.958,0,1,0,5.6,5.6L8,185.983a.792.792,0,1,0-1.12-1.12Z" transform="translate(0.993 -170.381)" fill="#1050ff"/>
        <path id="Контур_143" data-name="Контур 143" d="M200.691.159a3.959,3.959,0,0,0-5.6,0l-2.686,2.686a.792.792,0,0,0,1.12,1.12l2.686-2.686a2.375,2.375,0,0,1,3.359,3.358l-4.926,4.926a2.374,2.374,0,0,1-3.358,0,.792.792,0,0,0-1.12,1.12,3.958,3.958,0,0,0,5.6,0l4.926-4.926A3.958,3.958,0,0,0,200.691.159Z" transform="translate(-182.85 1)" fill="#1050ff"/>
      </g>
    </g>
  </g>
</svg>
