<svg xmlns="http://www.w3.org/2000/svg" width="24.287" height="33.385" viewBox="0 0 24.287 33.385"><g transform="translate(-11 -3.267)"><path d="M35.287,15.411c0,10.621-12.144,21.242-12.144,21.242S11,26.031,11,15.411a12.144,12.144,0,0,1,24.287,0Z" transform="translate(0)" fill="#fa4b4b"/><path d="M19.625,39.34a50.182,50.182,0,0,0,7.156,8.123S36.959,38.557,38.674,28.9A34.637,34.637,0,0,1,19.625,39.34Z" transform="translate(-3.637 -10.81)" fill="#dc3c46"/><circle cx="9.831" cy="9.831" r="9.831" transform="translate(13.313 5.426)" fill="#f8f8f8"/><path d="M25.626,17.626V13H29.1v4.626h4.626V21.1H29.1v4.626h-3.47V21.1H21v-3.47Z" transform="translate(-4.217 -4.105)" fill="#ad2a37"/></g></svg>