<svg xmlns="http://www.w3.org/2000/svg" width="54.772" height="91.142" viewBox="0 0 54.772 91.142"><path d="M40.222,27.172c-1.6,14.335-2.353,20.753-2.353,20.753a3.8,3.8,0,0,1,1.07-.107c.749,0,4.6.963,4.6,4.493a4.661,4.661,0,0,1-4.6,4.707c-1.5,0-1.6-.214-1.6-.214a45.139,45.139,0,0,1-7.167-24.711c0-9.521.642-18.186.642-23A13.7,13.7,0,0,0,27.492,0a13.7,13.7,0,0,0-3.316,9.093c0,4.921.642,13.586.642,23A45.139,45.139,0,0,1,17.651,56.8s-.107.214-1.6.214a4.661,4.661,0,0,1-4.6-4.707c0-3.53,3.851-4.493,4.6-4.493a3.8,3.8,0,0,1,1.07.107s-.749-6.311-2.353-20.753C11.553,11.767,0,6.418,0,6.418V72.85H15.4a24.014,24.014,0,0,0,9.307,15.3s2.567,2.246,2.674,3c.107-.749,2.674-3,2.674-3a24.014,24.014,0,0,0,9.307-15.3h15.4V6.418C54.878,6.418,43.325,11.767,40.222,27.172ZM4.707,16.26A30.045,30.045,0,0,1,10.056,27.6c.642,5.67,2.033,16.581,2.033,16.581a9.184,9.184,0,0,0-4.921,5.884H4.707V16.26Zm10.163,52.1H4.707v-13.8h2.46c1.284,5.991,7.7,6.953,8.665,6.953A26.987,26.987,0,0,0,14.869,68.357Zm10.27,13.907a16.524,16.524,0,0,1-4.707-9.414h4.707ZM19.576,68.357a17.083,17.083,0,0,1,.749-5.67c4.6.749,4.814,5.67,4.814,5.67Zm7.916-6.632s-4.065-2.781-5.242-3.53c3.209-4.921,5.242-12.409,5.242-12.409s2.033,7.488,5.242,12.409C31.558,58.943,27.492,61.724,27.492,61.724Zm2.353,20.539V72.85h4.707A16.524,16.524,0,0,1,29.846,82.263Zm-.107-13.907s.214-4.921,4.814-5.67a16.619,16.619,0,0,1,.749,5.67Zm20.539,0H40.115a26.987,26.987,0,0,0-.963-6.846c.963,0,7.381-.963,8.665-6.953h2.46Zm0-18.293h-2.46C46.962,45.892,42.9,44.18,42.9,44.18S44.181,33.269,44.929,27.6A30.045,30.045,0,0,1,50.278,16.26Z" transform="translate(0 0)" fill="#2b2b2b"/></svg>