<svg xmlns="http://www.w3.org/2000/svg" width="91.142" height="91.143" viewBox="0 0 91.142 91.143"><g transform="translate(-0.002)"><g transform="translate(36.152 0)"><path d="M221.928,9.429a9.4,9.4,0,0,1-6.286,8.878,9.253,9.253,0,0,1-6.286,0,9.424,9.424,0,1,1,12.571-8.878Z" transform="translate(-203.079 0)" fill="#556080"/><path d="M244.633,61.8v41.287l-3.127,1.141h-.016l-3.143-1.141V61.8A6.931,6.931,0,0,0,244.633,61.8Z" transform="translate(-232.069 -50.796)" fill="#556080"/></g><g transform="translate(0.002 10.812)"><path d="M42.43,75.068v4.714c-11,6.286-17.285,1.571-17.285,1.571C9.43,89.21,0,73.5,0,73.5a13.349,13.349,0,0,0,1.367.094A19.031,19.031,0,0,0,10,71.092a69.338,69.338,0,0,0,8.093-5.186,51.206,51.206,0,0,1,6.694-4.4,4.343,4.343,0,0,1,3.881-.534,4.389,4.389,0,0,1,1.54,2.074,20.448,20.448,0,0,0,1.587,2.719A30.78,30.78,0,0,0,42.43,75.068Z" transform="translate(-0.002 -60.736)" fill="#b0d3f0"/><path d="M316.086,73.5s-9.429,15.714-25.142,7.857c0,0-6.286,4.714-17.285-1.571V75.067a30.779,30.779,0,0,0,10.638-9.3,20.447,20.447,0,0,0,1.587-2.719,4.388,4.388,0,0,1,1.54-2.074,4.343,4.343,0,0,1,3.881.534,51.218,51.218,0,0,1,6.694,4.4,69.338,69.338,0,0,0,8.093,5.186,19.031,19.031,0,0,0,8.627,2.5A13.3,13.3,0,0,0,316.086,73.5Z" transform="translate(-224.944 -60.735)" fill="#b0d3f0"/></g><path d="M174,242.429l-3.9-1.1,4.934-1.383a6.295,6.295,0,0,0-.078-12.131l-4.337-1.163,3.63-.974a6.294,6.294,0,0,0,1.65-11.44l-3.19-1.964a3.153,3.153,0,0,0-3.3,5.374l3.206,1.949-11,2.954-3.127.833h-.016l-3.143-.833L144.352,219.6l3.206-1.949a3.153,3.153,0,1,0-3.3-5.374l-3.19,1.964a6.294,6.294,0,0,0,1.65,11.44l3.63.974-4.337,1.163a6.295,6.295,0,0,0-.079,12.131l4.934,1.383-3.9,1.1a6.281,6.281,0,0,0-.629,11.88l13.341,5.343,2.8,5.594,2.781-5.579h.016l13.357-5.358a6.281,6.281,0,0,0-.629-11.88Zm-30.36-8.548,11.691-3.127,3.158-.849,3.127.833,11.707,3.143-11.707,3.3-3.127.88-3.158-.9Zm17.977,18.873-3.127,1.257-3.158-1.273-10.67-4.259,10.67-3,3.158-.88,3.127.88,10.686,3Z" transform="translate(-112.906 -174.104)" fill="#4482c3"/><g transform="translate(24.453 37.704)"><path d="M276.1,384.468a6.16,6.16,0,0,1-3.944,6.16L258.8,395.986h-.016L256,401.565l.016-11.236,3.127-1.257L269.83,384.8l-10.686-3-3.127-.88,11.613-3.268,3.9,1.1A6.189,6.189,0,0,1,276.1,384.468Z" transform="translate(-234.882 -348.126)" fill="#285680"/><path d="M276.439,220.492a6.308,6.308,0,0,1-4.589,5.186l-3.63.974-12.131-3.268,3.127-.833,11-2.954-3.206-1.949a3.153,3.153,0,1,1,3.3-5.374l3.19,1.964A6.292,6.292,0,0,1,276.439,220.492Z" transform="translate(-234.953 -211.807)" fill="#285680"/><path d="M155.334,305.711l3.158.9-3.158.88-8.47,2.389-4.934-1.383a6.295,6.295,0,0,1,.078-12.131l4.337-1.163,8.989,2.4,3.158.849-3.158.849-11.691,3.127Z" transform="translate(-137.356 -280.353)" fill="#285680"/></g></g></svg>