<svg xmlns="http://www.w3.org/2000/svg" width="75.43" height="91.142" viewBox="0 0 75.43 91.142"><g transform="translate(-1078.213 -3955.301)"><path d="M167.4,348.37a3.962,3.962,0,0,0-2.4-3.421,85.973,85.973,0,0,0-34.765-7.212c-17.844,0-30.142,4.9-34.765,7.119a4.163,4.163,0,0,0-2.311,3.421c-.648,8.321-2.219,36.891,5.27,51.685,7.581,14.886,25.427,25.7,30.511,28.57a2.767,2.767,0,0,0,2.681,0c5.085-2.866,22.93-13.684,30.511-28.57C169.62,385.262,168.049,356.785,167.4,348.37Z" transform="translate(985.649 3617.564)" fill="#216eb6"/><path d="M143.022,376.247V362.193a.632.632,0,0,0-.648-.647H129.059a.632.632,0,0,0-.648.647v13.961H114.451a.632.632,0,0,0-.648.648v13.315a.633.633,0,0,0,.648.648h13.963v13.961a.632.632,0,0,0,.648.647h13.315a.632.632,0,0,0,.648-.647V390.764h13.961a.633.633,0,0,0,.648-.648V376.894a.632.632,0,0,0-.648-.648Z" transform="translate(980.165 3611.416)" fill="#fff"/></g></svg>