<svg xmlns="http://www.w3.org/2000/svg" width="216" height="44" viewBox="0 0 216 44"><g transform="translate(-372 -58)"><text transform="translate(433 76)" fill="#404040" stroke="rgba(0,0,0,0)" stroke-miterlimit="10" stroke-width="1" font-size="16" font-family="Roboto-Medium, Roboto" font-weight="500"><tspan x="0" y="0">Вінницька міська </tspan><tspan x="0" y="21">клінічна лікарня №1</tspan></text><g transform="translate(361.345 76.023)"><path d="M182.142,453.33h-.03a.875.875,0,0,1-.845-.9h0a4.737,4.737,0,0,1,2.174-4.221.875.875,0,0,1,.9,1.5,3.113,3.113,0,0,0-1.325,2.781A.875.875,0,0,1,182.142,453.33Z" transform="translate(-156.611 -428.353)" fill="#00897b"/><path d="M293.885,193.366a3.868,3.868,0,0,0-2.578-1.094,3.047,3.047,0,0,0-2.312.735,1.563,1.563,0,0,0-.476,1.237,1.972,1.972,0,0,0,.63,1.234c1.181,1.183.964,2.156-.891,4.013a.875.875,0,0,0,.618,1.495.892.892,0,0,0,.264-.04c1.561-.5,5.25-1.915,5.859-4.375A3.289,3.289,0,0,0,293.885,193.366Z" transform="translate(-254.595 -193.508)" fill="#009688"/><path d="M50.031,69.25A10.452,10.452,0,0,1,45,66.679,10.467,10.467,0,0,0,39.531,64c-2.819,0-7.3,2.5-8.75,3.353C29.33,66.5,24.85,64,22.031,64a10.467,10.467,0,0,0-5.467,2.679,10.452,10.452,0,0,1-5.033,2.571.875.875,0,0,0-.175,1.733A108.7,108.7,0,0,0,30.781,72.75a108.689,108.689,0,0,0,19.425-1.768.875.875,0,0,0-.175-1.733Z" transform="translate(0 -75.773)" fill="#b0bec5"/><g transform="translate(26.406 -17.023)"><ellipse cx="4.375" cy="4.375" rx="4.375" ry="4.375" transform="translate(0 0)" fill="#607d8b"/><path d="M246.207,120.333a.875.875,0,0,1-.875-.875V86.208a.875.875,0,1,1,1.75,0v33.25A.875.875,0,0,1,246.207,120.333Z" transform="translate(-241.832 -78.333)" fill="#607d8b"/></g><path d="M156.3,206.6c-.336-2.546-3.887-3.773-6.234-4.585-.478-.166-.887-.306-1.169-.429h0c-2.037-.9-4.391-2.763-4.646-4.2a1.418,1.418,0,0,1,.525-1.358,1.636,1.636,0,0,0,.229-2.425,3.817,3.817,0,0,0-4.93.278A3,3,0,0,0,139,196.847c.8,3.579,8.344,6.086,9.261,6.38.311.131.731.28,1.225.453,1.7.588,4.876,1.685,5.075,3.16.121.913-.949,2.186-3.01,3.584a.876.876,0,1,0,.984,1.449C155.286,210,156.518,208.278,156.3,206.6Z" transform="translate(-117.761 -194.04)" fill="#00897b"/><path d="M172.272,335.737a.888.888,0,0,1-.163-.016.875.875,0,0,1-.7-1.02c.014-.1.359-2.77-4.639-4.251-4.931-1.461-7.443-3.2-7.681-5.325-.194-1.75,1.153-3.434,4-5.028a.875.875,0,0,1,.854,1.528c-2.084,1.166-3.22,2.37-3.117,3.308.067.6.828,2.177,6.438,3.839,6.587,1.951,5.894,6.076,5.861,6.249A.875.875,0,0,1,172.272,335.737Z" transform="translate(-136.241 -310.76)" fill="#009688"/></g></g></svg>