<svg xmlns="http://www.w3.org/2000/svg" width="51.428" height="36" viewBox="0 0 51.428 36"><g transform="translate(-7 -5)"><g transform="translate(7 5)"><path d="M13.429,9.423h.017A13.561,13.561,0,0,0,23.821,4.156a4.276,4.276,0,0,1,6.64-.008A13.572,13.572,0,0,0,40.841,9.423h.016l3.429.006V8.571a1.714,1.714,0,0,0-1.714-1.714H41.277a11.427,11.427,0,0,1-8.82-4.329,6.849,6.849,0,0,0-10.629,0,11.427,11.427,0,0,1-8.82,4.329H11.714A1.714,1.714,0,0,0,10,8.571v.857Z" transform="translate(-1.429 0)" fill="#009688"/><path d="M40.857,11.851h-.019A15.278,15.278,0,0,1,29.13,5.942a2.563,2.563,0,0,0-3.981.007,15.186,15.186,0,0,1-11.721,5.9L10,11.857v6.857A17.914,17.914,0,0,0,25.818,36.639a11.811,11.811,0,0,0,2.65,0A17.914,17.914,0,0,0,44.286,18.714V11.857ZM16.132,14.438a72.4,72.4,0,0,0,22.022,0,.857.857,0,1,1,.264,1.694,73.4,73.4,0,0,1-11.275.862,73.4,73.4,0,0,1-11.275-.862.857.857,0,0,1,.264-1.694Zm-.951,5.733a.857.857,0,0,1,1.073-.564,36.434,36.434,0,0,0,21.776,0,.857.857,0,1,1,.509,1.637,38.25,38.25,0,0,1-11.4,1.745,38.25,38.25,0,0,1-11.4-1.743.857.857,0,0,1-.561-1.076ZM38.655,27.2a26.229,26.229,0,0,1-23.024,0,.857.857,0,1,1,.739-1.543,24.542,24.542,0,0,0,21.547,0,.857.857,0,1,1,.739,1.543Z" transform="translate(-1.429 -0.714)" fill="#009688"/><path d="M7.954,25.86C3.514,24.814,0,20.914,0,16.714V12.429A3.429,3.429,0,0,1,3.429,9h3.54a3.135,3.135,0,0,0-.111.857v.857H3.429a1.719,1.719,0,0,0-1.714,1.714v4.286c0,3.386,2.64,6.094,5.674,7.183a19.064,19.064,0,0,0,.566,1.963Z" transform="translate(0 -1.286)" fill="#009688"/><path d="M58.674,12.429v4.286c0,4.2-3.514,8.1-7.954,9.146a19.063,19.063,0,0,0,.566-1.963c3.034-1.089,5.674-3.8,5.674-7.183V12.429a1.719,1.719,0,0,0-1.714-1.714H51.817V9.857A3.135,3.135,0,0,0,51.706,9h3.54A3.429,3.429,0,0,1,58.674,12.429Z" transform="translate(-7.246 -1.286)" fill="#009688"/></g></g></svg>