<svg xmlns="http://www.w3.org/2000/svg" width="20" height="21.966" viewBox="0 0 20 21.966"><g transform="translate(-0.06)"><g transform="translate(0.06)"><path d="M41,45.178v2.193L44.371,44H42.178A1.178,1.178,0,0,0,41,45.178Z" transform="translate(-24.926 -26.725)" fill="#009688"/><path d="M21.883,0H6.178A1.178,1.178,0,0,0,5,1.178V9.32a3.45,3.45,0,0,1,1.293-.254,5.311,5.311,0,0,1,3.626,1.441,5.31,5.31,0,0,1,3.626-1.441c2.252,0,4.019,2.15,4.019,4.9A8.9,8.9,0,0,1,13.31,21.2h5.039V18.453a1.965,1.965,0,0,1,1.963-1.963H23.06V1.178A1.178,1.178,0,0,0,21.883,0ZM7.748,7.067H6.963a.393.393,0,1,1,0-.785h.785a.393.393,0,1,1,0,.785Zm0-2.356H6.963a.393.393,0,1,1,0-.785h.785a.393.393,0,1,1,0,.785Zm0-2.356H6.963a.393.393,0,1,1,0-.785h.785a.393.393,0,1,1,0,.785ZM15.6,7.067H9.319a.393.393,0,1,1,0-.785H15.6a.393.393,0,1,1,0,.785Zm2.748-2.356H9.319a.393.393,0,1,1,0-.785h9.03a.393.393,0,1,1,0,.785ZM21.1,2.356H9.319a.393.393,0,1,1,0-.785H21.1a.393.393,0,1,1,0,.785Zm1.178,12.956a.393.393,0,1,1-.785,0v-.785a.393.393,0,1,1,.785,0Zm0-2.356a.393.393,0,1,1-.785,0V7.46a.393.393,0,1,1,.785,0Z" transform="translate(-3.06)" fill="#009688"/><path d="M13.778,29.2c0-2.3-1.42-4.11-3.234-4.11a4.567,4.567,0,0,0-3.322,1.47.392.392,0,0,1-.608,0,4.567,4.567,0,0,0-3.322-1.47C1.48,25.092.06,26.9.06,29.2c0,2.657,1.8,6.334,6.859,8C11.978,35.536,13.778,31.859,13.778,29.2Z" transform="translate(-0.06 -15.24)" fill="#009688"/></g></g></svg>