<svg xmlns="http://www.w3.org/2000/svg" width="20" height="17.366" viewBox="0 0 20 17.366"><g transform="translate(0 -33.714)"><path d="M4.1,168.773H0v12.09H4.1Zm-1.392,7.913H1.392v-1.172H2.711Zm0-2.638H1.392v-1.172H2.711Zm-1.319-2.638v-1.172H2.711v1.172Z" transform="translate(0 -129.783)" fill="#009688"/><path d="M406.954,180.863h4.1v-12.09h-4.1Zm1.392-10.625h1.319v1.172h-1.319Zm0,2.638h1.319v1.172h-1.319Zm1.319,2.638v1.172h-1.319v-1.172Z" transform="translate(-391.057 -129.783)" fill="#009688"/><path d="M203.477,438.865h1.466v1.54h-1.466Z" transform="translate(-195.529 -389.325)" fill="#009688"/><path d="M271,438.865h1.466v1.54H271Z" transform="translate(-260.414 -389.325)" fill="#009688"/><path d="M135.046,51.08h1.5V48.368h6.447V51.08h1.5V33.714h-9.45ZM140.43,46.9h-1.319V45.731h1.319Zm0-2.638h-1.319V43.093h1.319Zm0-2.638h-1.319V40.456h1.319Zm2.638,5.275h-1.319V45.731h1.319Zm0-2.638h-1.319V43.093h1.319Zm0-2.638h-1.319V40.456h1.319ZM137.793,36.5h1.392V35.108h1.172V36.5h1.392v1.172h-1.392v1.392h-1.172V37.673h-1.392Zm-1.319,3.955h1.319v1.172h-1.319Zm0,2.638h1.319v1.172h-1.319Zm0,2.638h1.319V46.9h-1.319Z" transform="translate(-129.771)" fill="#009688"/></g></svg>