<svg xmlns="http://www.w3.org/2000/svg" width="20" height="20" viewBox="0 0 20 20"><path d="M318.026,3.125h-1.758V1.172a1.172,1.172,0,1,0-2.344,0v1.1a1.36,1.36,0,0,1-.965,1.307l-.988.3V9.961c0,.016,0,.031,0,.046a1.843,1.843,0,0,0,1.3.54h4.753a1.758,1.758,0,0,0,1.758-1.758V4.883A1.758,1.758,0,0,0,318.026,3.125Z" transform="translate(-299.784)" fill="#009688"/><path d="M223.758,87.422h-1.172a.586.586,0,0,1-.586-.586v-6.25a.586.586,0,0,1,.586-.586h1.172a.586.586,0,0,1,.586.586v6.25A.586.586,0,0,1,223.758,87.422Z" transform="translate(-213.328 -76.875)" fill="#009688"/><path d="M13.489,181.8a2.992,2.992,0,0,1-1.765-.571,1.753,1.753,0,0,1-1.295.571H9.258A1.758,1.758,0,0,1,7.5,180.047V177H.586a.586.586,0,0,0-.586.586v11.9A.6.6,0,0,0,.274,190a.586.586,0,0,0,.637-.008l2.2-1.464H15.43a.586.586,0,0,0,.586-.586V181.8ZM2.93,179.93H6.25a.586.586,0,0,1,0,1.172H2.93a.586.586,0,0,1,0-1.172Zm10.156,6.445H2.93a.586.586,0,0,1,0-1.172H13.086a.586.586,0,0,1,0,1.172Zm0-2.637H2.93a.586.586,0,0,1,0-1.172H13.086a.586.586,0,0,1,0,1.172Z" transform="translate(0 -170.086)" fill="#009688"/></svg>