<svg xmlns="http://www.w3.org/2000/svg" width="20" height="17.647" viewBox="0 0 20 17.647"><g transform="translate(0 -30)"><path d="M90,90h15.294v2.353H90Z" transform="translate(-86.471 -57.647)" fill="#009688"/><path d="M82.347,180v10.588a2.355,2.355,0,0,1-.312,1.176H95.328a3.494,3.494,0,0,0,3.49-3.49V180Zm8.824,7.647H84.7v-5.882h6.471Zm5.294,0H92.347v-1.176h4.118Zm0-2.353H92.347v-1.176h4.118Zm0-2.353H92.347v-1.176h4.118Z" transform="translate(-78.818 -144.118)" fill="#009688"/><path d="M180,255h4.118v3.529H180Z" transform="translate(-172.941 -216.176)" fill="#009688"/><path d="M6.176,30H0V46.471a1.176,1.176,0,0,0,2.353,0V31.176H7.059Z" fill="#009688"/></g></svg>