<svg xmlns="http://www.w3.org/2000/svg" width="20" height="21.37" viewBox="0 0 20 21.37"><g transform="translate(-0.301 -0.001)"><path d="M168.3,93.6h.741v.741H168.3Zm0,0" transform="translate(-160.222 -89.267)" fill="#009688"/><path d="M168.3,157.6h.741v.741H168.3Zm0,0" transform="translate(-160.222 -150.305)" fill="#009688"/><path d="M168.3,221.6h.741v.741H168.3Zm0,0" transform="translate(-160.222 -211.342)" fill="#009688"/><path d="M88.3,285.6h.741v.741H88.3Zm0,0" transform="translate(-83.926 -272.379)" fill="#009688"/><path d="M360.3,173.6h.741v.741H360.3Zm0,0" transform="translate(-343.333 -165.564)" fill="#009688"/><path d="M88.3,221.6h.741v.741H88.3Zm0,0" transform="translate(-83.926 -211.342)" fill="#009688"/><path d="M88.3,93.6h.741v.741H88.3Zm0,0" transform="translate(-83.926 -89.267)" fill="#009688"/><path d="M168.3,285.6h.741v.741H168.3Zm0,0" transform="translate(-160.222 -272.379)" fill="#009688"/><path d="M88.3,157.6h.741v.741H88.3Zm0,0" transform="translate(-83.926 -150.305)" fill="#009688"/><path d="M296.3,237.6h.741v.741H296.3Zm0,0" transform="translate(-282.296 -226.601)" fill="#009688"/><path d="M360.3,237.6h.741v.741H360.3Zm0,0" transform="translate(-343.333 -226.601)" fill="#009688"/><path d="M360.3,301.6h.741v.741H360.3Zm0,0" transform="translate(-343.333 -287.638)" fill="#009688"/><path d="M296.3,173.6h.741v.741H296.3Zm0,0" transform="translate(-282.296 -165.564)" fill="#009688"/><path d="M296.3,301.6h.741v.741H296.3Zm0,0" transform="translate(-282.296 -287.638)" fill="#009688"/><path d="M80.3,365.6h2.222v2.963H80.3Zm0,0" transform="translate(-76.296 -348.675)" fill="#009688"/><path d="M144.3,365.6h2.222v2.963H144.3Zm0,0" transform="translate(-137.333 -348.675)" fill="#009688"/><path d="M312.3,381.6h2.222v2.222H312.3Zm0,0" transform="translate(-297.556 -363.935)" fill="#009688"/><path d="M19.19,20.63V6.846L12.523,5.179V20.63h-.741V2.767L1.412,0v20.63H.3v.741h20v-.741ZM7.338,3.964a.37.37,0,0,1,.37-.37H9.19a.37.37,0,0,1,.37.37V5.445a.37.37,0,0,1-.37.37H7.708a.37.37,0,0,1-.37-.37Zm0,2.963a.37.37,0,0,1,.37-.37H9.19a.37.37,0,0,1,.37.37V8.408a.37.37,0,0,1-.37.37H7.708a.37.37,0,0,1-.37-.37Zm0,2.963a.37.37,0,0,1,.37-.37H9.19a.37.37,0,0,1,.37.37v1.481a.37.37,0,0,1-.37.37H7.708a.37.37,0,0,1-.37-.37Zm0,2.963a.37.37,0,0,1,.37-.37H9.19a.37.37,0,0,1,.37.37v1.481a.37.37,0,0,1-.37.37H7.708a.37.37,0,0,1-.37-.37Zm-3.7-8.889A.37.37,0,0,1,4,3.593H5.486a.37.37,0,0,1,.37.37V5.445a.37.37,0,0,1-.37.37H4a.37.37,0,0,1-.37-.37Zm0,2.963A.37.37,0,0,1,4,6.556H5.486a.37.37,0,0,1,.37.37V8.408a.37.37,0,0,1-.37.37H4a.37.37,0,0,1-.37-.37Zm0,2.963A.37.37,0,0,1,4,9.519H5.486a.37.37,0,0,1,.37.37v1.481a.37.37,0,0,1-.37.37H4a.37.37,0,0,1-.37-.37Zm0,2.963a.37.37,0,0,1,.37-.37H5.486a.37.37,0,0,1,.37.37v1.481a.37.37,0,0,1-.37.37H4a.37.37,0,0,1-.37-.37Zm6.3,7.037v.741H3.264V16.556a.37.37,0,0,1,.37-.37H9.56a.37.37,0,0,1,.37.37ZM13.264,7.668a.37.37,0,0,1,.37-.37h1.481a.37.37,0,0,1,.37.37V9.149a.37.37,0,0,1-.37.37H13.634a.37.37,0,0,1-.37-.37Zm0,2.963a.37.37,0,0,1,.37-.37h1.481a.37.37,0,0,1,.37.37v1.481a.37.37,0,0,1-.37.37H13.634a.37.37,0,0,1-.37-.37Zm0,4.444V13.593a.37.37,0,0,1,.37-.37h1.481a.37.37,0,0,1,.37.37v1.481a.37.37,0,0,1-.37.37H13.634A.37.37,0,0,1,13.264,15.075Zm4.444,5.556H14V17.3a.37.37,0,0,1,.37-.37h2.963a.37.37,0,0,1,.37.37Zm.741-5.556a.37.37,0,0,1-.37.37H16.6a.37.37,0,0,1-.37-.37V13.593a.37.37,0,0,1,.37-.37h1.481a.37.37,0,0,1,.37.37Zm0-2.963a.37.37,0,0,1-.37.37H16.6a.37.37,0,0,1-.37-.37V10.63a.37.37,0,0,1,.37-.37h1.481a.37.37,0,0,1,.37.37Zm0-2.963a.37.37,0,0,1-.37.37H16.6a.37.37,0,0,1-.37-.37V7.668a.37.37,0,0,1,.37-.37h1.481a.37.37,0,0,1,.37.37Zm0,0" fill="#009688"/></g></svg>