<svg xmlns="http://www.w3.org/2000/svg" width="20" height="18.929" viewBox="0 0 20 18.929"><g transform="translate(0 -13.7)"><g transform="translate(0 13.7)"><g transform="translate(0 0)"><path d="M15.234,117.074l-3.371-2.248a.347.347,0,0,0-.464.075l-.982,1.262a1.052,1.052,0,0,1-1.349.278l-.181-.1a11.858,11.858,0,0,1-3.088-2.42,11.843,11.843,0,0,1-2.42-3.089l-.1-.181a1.052,1.052,0,0,1,.278-1.348l1.262-.982a.347.347,0,0,0,.075-.464l-2.247-3.372a.345.345,0,0,0-.464-.1l-1.411.846a1.357,1.357,0,0,0-.621.8c-.463,1.687-.074,4.641,4.414,9.129s7.441,4.878,9.129,4.414a1.357,1.357,0,0,0,.8-.622l.846-1.411A.345.345,0,0,0,15.234,117.074Z" transform="translate(0 -100.791)" fill="#009688"/><path d="M114.913,13.757a.194.194,0,0,0-.14-.057H99.806a.194.194,0,0,0-.2.2v5.2l.849,1.273a1.064,1.064,0,0,1-.231,1.425l-1.261.982a.341.341,0,0,0-.092.437l.1.188a9.007,9.007,0,0,0,1.192,1.738h14.6a.2.2,0,0,0,.2-.192V13.9A.194.194,0,0,0,114.913,13.757Zm-10.149,6.5v0L101.1,24.172a.357.357,0,1,1-.523-.487l3.659-3.919a.357.357,0,0,1,.523.487Zm2.526-.281a1.184,1.184,0,0,1-.714-.236L100.6,15.209a.358.358,0,1,1,.434-.569l5.968,4.527a.482.482,0,0,0,.567,0l5.97-4.527a.357.357,0,0,1,.432.569L108,19.736A1.184,1.184,0,0,1,107.29,19.972ZM114,24.19a.357.357,0,0,1-.505-.018l-3.659-3.921a.357.357,0,0,1,.523-.485l3.658,3.919A.357.357,0,0,1,114,24.19Z" transform="translate(-94.97 -13.7)" fill="#009688"/></g></g></g></svg>