<svg xmlns="http://www.w3.org/2000/svg" width="20" height="20" viewBox="0 0 20 20"><circle cx="0.586" cy="0.586" r="0.586" transform="translate(9.414 3.516)" fill="#009688"/><path d="M123.344,9.654V8.789a2.933,2.933,0,0,1,2.93-2.93A1.758,1.758,0,1,1,128.031,4.1a1.76,1.76,0,0,1-1.758,1.758,2.933,2.933,0,0,1,2.93,2.93v.865a5.273,5.273,0,1,0-5.859,0Z" transform="translate(-116.273)" fill="#009688"/><path d="M0,390H5.859v4.766H0Z" transform="translate(0 -374.766)" fill="#009688"/><path d="M181,390h5.859v4.766H181Z" transform="translate(-173.93 -374.766)" fill="#009688"/><path d="M362,390h5.859v4.766H362Z" transform="translate(-347.859 -374.766)" fill="#009688"/><path d="M61.172,185.859h5.9v1.172h1.172v-1.172h5.9v1.172h1.172v-2.344h-7.07v-1.229a5.6,5.6,0,0,0,1.172-.267v-1.434a1.758,1.758,0,0,0-3.516,0v1.434a5.6,5.6,0,0,0,1.172.267v1.229H60v2.344h1.172Z" transform="translate(-57.656 -172.969)" fill="#009688"/></svg>