<svg xmlns="http://www.w3.org/2000/svg" width="20" height="19.979" viewBox="0 0 20 19.979"><g transform="translate(0.027 -0.008)"><g transform="translate(-0.027 0.008)"><path d="M17.357,29a.357.357,0,1,0,.357.357A.357.357,0,0,0,17.357,29Z" transform="translate(-11.281 -18.654)" fill="#009688"/><path d="M38.906,44.907a1.333,1.333,0,0,1-.584-.56c-.195-.383-.464-.941-.73-1.577a6.388,6.388,0,0,1-.931.54c.461.6.825,1.149,1.016,1.449a1.19,1.19,0,0,1,.175.734.714.714,0,1,0,1.331-.314.7.7,0,0,0-.278-.272Z" transform="translate(-23.925 -27.51)" fill="#009688"/><path d="M14.943,44.378a1.189,1.189,0,0,1-.547.517.714.714,0,1,0,.938,1,.7.7,0,0,0,.1-.376,1.331,1.331,0,0,1,.193-.785c.234-.361.583-.874,1-1.42a6.441,6.441,0,0,1-.932-.539C15.417,43.429,15.141,43.995,14.943,44.378Z" transform="translate(-9.353 -27.511)" fill="#009688"/><path d="M14.377,4.829a1.332,1.332,0,0,1,.584.559c.2.383.464.941.73,1.578a6.428,6.428,0,0,1,.932-.54c-.434-.566-.785-1.087-1.017-1.45a1.19,1.19,0,0,1-.175-.732.714.714,0,1,0-1.331.314.7.7,0,0,0,.278.271Z" transform="translate(-9.353 -2.247)" fill="#009688"/><path d="M38.339,5.359a1.191,1.191,0,0,1,.548-.517.714.714,0,1,0-.937-1,.7.7,0,0,0-.1.376,1.331,1.331,0,0,1-.193.785c-.234.361-.583.874-1,1.42a6.441,6.441,0,0,1,.932.539c.272-.658.547-1.224.746-1.607Z" transform="translate(-23.925 -2.247)" fill="#009688"/><circle cx="1.071" cy="1.071" r="1.071" transform="translate(7.86 6.777)" fill="#009688"/><path d="M4.574,27.237c-.015-.178-.023-.357-.023-.538s.008-.36.022-.537c-.706.092-1.332.136-1.762.155a1.193,1.193,0,0,1-.721-.214.714.714,0,0,0-.94,1.06.732.732,0,0,0,.919.146,1.339,1.339,0,0,1,.776-.226c.429.021,1.047.066,1.728.154Z" transform="translate(-0.973 -16.71)" fill="#009688"/><circle cx="0.357" cy="0.357" r="0.357" transform="translate(12.499 8.562)" fill="#009688"/><path d="M50.358,26.26a.733.733,0,0,0-.919-.146,1.324,1.324,0,0,1-.776.226c-.428-.022-1.047-.067-1.728-.156q.023.267.023.538c0,.181-.008.36-.023.538.753-.1,1.407-.14,1.762-.156a1.2,1.2,0,0,1,.721.214.714.714,0,0,0,.94-1.058Z" transform="translate(-30.533 -16.733)" fill="#009688"/><path d="M21.623,14.017a.682.682,0,0,0-.385-.094,1.287,1.287,0,0,1-.771-.191c-.565-.365-1.1-.745-1.589-1.129a.717.717,0,0,1-.231-.793,5.727,5.727,0,0,0,0-3.625.717.717,0,0,1,.231-.794c.637-.5,1.228-.9,1.611-1.144a1.2,1.2,0,0,1,.737-.175.732.732,0,0,0,.514-.178.714.714,0,1,0-1.1-.872,1.327,1.327,0,0,1-.553.579c-.369.187-1.261.58-1.761.8a.716.716,0,0,1-.821-.187,5.691,5.691,0,0,0-3.124-1.805.714.714,0,0,1-.575-.618c-.063-.554-.171-1.546-.19-1.958a1.186,1.186,0,0,1,.214-.714.714.714,0,1,0-1.309-.4.7.7,0,0,0,.107.375,1.306,1.306,0,0,1,.224.772c-.021.41-.128,1.38-.189,1.921a.714.714,0,0,1-.573.617A5.7,5.7,0,0,0,8.962,6.211a.714.714,0,0,1-.819.187c-.51-.221-1.42-.621-1.788-.813a1.193,1.193,0,0,1-.518-.548.715.715,0,1,0-.995.941.691.691,0,0,0,.383.093A1.275,1.275,0,0,1,6,6.263c.567.366,1.1.746,1.589,1.129a.717.717,0,0,1,.231.794,5.727,5.727,0,0,0,0,3.624.717.717,0,0,1-.231.794c-.638.5-1.228.9-1.611,1.145a1.208,1.208,0,0,1-.736.175.729.729,0,0,0-.514.178.714.714,0,0,0,.828,1.154.7.7,0,0,0,.275-.282,1.327,1.327,0,0,1,.554-.579c.369-.187,1.261-.58,1.761-.8a.71.71,0,0,1,.282-.059.722.722,0,0,1,.54.245,5.691,5.691,0,0,0,3.125,1.806.714.714,0,0,1,.574.618c.063.552.171,1.541.19,1.956a1.2,1.2,0,0,1-.214.717.714.714,0,1,0,1.309.4.7.7,0,0,0-.107-.376,1.3,1.3,0,0,1-.224-.77c.027-.525.087-1.33.221-2.19a.36.36,0,0,1,.3-.307A5.669,5.669,0,0,0,17.5,13.784a.714.714,0,0,1,.821-.187c.511.222,1.423.623,1.788.813a1.19,1.19,0,0,1,.517.548.716.716,0,1,0,1-.941ZM9.306,11.782a1.071,1.071,0,1,1,1.071-1.071A1.071,1.071,0,0,1,9.306,11.782Zm1.071-3.925a1.784,1.784,0,1,1,1.784,1.784A1.784,1.784,0,0,1,10.377,7.856Zm3.212,6.78A2.141,2.141,0,1,1,15.73,12.5,2.141,2.141,0,0,1,13.589,14.637ZM16.087,10a1.071,1.071,0,1,1,1.071-1.071A1.071,1.071,0,0,1,16.087,10Z" transform="translate(-3.23 -0.008)" fill="#009688"/><path d="M27.427,31a1.427,1.427,0,1,0,1.427,1.427A1.427,1.427,0,0,0,27.427,31Z" transform="translate(-17.069 -19.94)" fill="#009688"/></g></g></svg>