<svg xmlns="http://www.w3.org/2000/svg" width="20" height="17.771" viewBox="0 0 20 17.771"><g transform="translate(0 -22.379)"><g transform="translate(0 22.379)"><path d="M5.812,117.852a12.457,12.457,0,0,0,1.619-.1v-5.635a12.464,12.464,0,0,0-1.619-.1C2.6,112.009,0,113.189,0,114.645v.572C0,116.672,2.6,117.852,5.812,117.852Z" transform="translate(-0.001 -107.545)" fill="#009688"/><path d="M5.812,216.921a12.476,12.476,0,0,0,1.619-.1v-1.652a12.465,12.465,0,0,1-1.619.1c-2.8,0-5.139-.9-5.689-2.1a1.285,1.285,0,0,0-.122.54v.572C0,215.741,2.6,216.921,5.812,216.921Z" transform="translate(-0.001 -203.672)" fill="#009688"/><path d="M7.43,274.378v-.128a12.468,12.468,0,0,1-1.619.1c-2.8,0-5.139-.9-5.689-2.1A1.285,1.285,0,0,0,0,272.8v.572C0,274.825,2.6,276,5.811,276a12.342,12.342,0,0,0,1.836-.134,2.079,2.079,0,0,1-.217-.921Z" transform="translate(0 -259.814)" fill="#009688"/><path d="M174.05,22.379c-3.209,0-5.811,1.18-5.811,2.636v.572c0,1.456,2.6,2.636,5.811,2.636s5.811-1.18,5.811-2.636v-.572C179.861,23.559,177.259,22.379,174.05,22.379Z" transform="translate(-159.861 -22.379)" fill="#009688"/><path d="M174.05,125.64c-2.8,0-5.139-.9-5.689-2.1a1.285,1.285,0,0,0-.122.54v.572c0,1.456,2.6,2.636,5.811,2.636s5.811-1.18,5.811-2.636v-.572a1.285,1.285,0,0,0-.122-.54C179.189,124.741,176.851,125.64,174.05,125.64Z" transform="translate(-159.861 -118.506)" fill="#009688"/><path d="M174.05,184.724c-2.8,0-5.139-.9-5.689-2.1a1.285,1.285,0,0,0-.122.54v.572c0,1.456,2.6,2.636,5.811,2.636s5.811-1.18,5.811-2.636v-.572a1.285,1.285,0,0,0-.122-.54C179.189,183.825,176.851,184.724,174.05,184.724Z" transform="translate(-159.861 -174.647)" fill="#009688"/><path d="M174.05,247c-2.8,0-5.139-.9-5.689-2.1a1.285,1.285,0,0,0-.122.54v.572c0,1.456,2.6,2.635,5.811,2.635s5.811-1.18,5.811-2.635v-.572a1.285,1.285,0,0,0-.122-.54C179.189,246.1,176.851,247,174.05,247Z" transform="translate(-159.861 -233.819)" fill="#009688"/><path d="M174.05,306.08c-2.8,0-5.139-.9-5.689-2.1a1.286,1.286,0,0,0-.122.54v.572c0,1.456,2.6,2.635,5.811,2.635s5.811-1.18,5.811-2.635v-.572a1.285,1.285,0,0,0-.122-.54C179.189,305.181,176.851,306.08,174.05,306.08Z" transform="translate(-159.861 -289.96)" fill="#009688"/></g></g></svg>