<svg xmlns="http://www.w3.org/2000/svg" width="20" height="20.047" viewBox="0 0 20 20.047"><g transform="translate(-0.6 0)"><path d="M18.479,424.371a6.009,6.009,0,0,1-3.337-.665,3.473,3.473,0,0,0-1.877-.507,4.223,4.223,0,0,0-2.665.957,4.223,4.223,0,0,0-2.665-.957,3.472,3.472,0,0,0-1.877.507,5.836,5.836,0,0,1-3.3.665h-.4L.6,426.715H2.971a7.563,7.563,0,0,0,3.342-.738,3.85,3.85,0,0,1,1.623-.434,2.8,2.8,0,0,1,2.134.649l.53.522.53-.522a2.8,2.8,0,0,1,2.134-.649,3.849,3.849,0,0,1,1.623.434,7.761,7.761,0,0,0,3.381.738H20.6l-1.758-2.344Z" transform="translate(0 -406.668)" fill="#009688"/><path d="M172.983,11.16v-2a12.54,12.54,0,0,1,1.125-5.215l1.078.492a11.134,11.134,0,0,0-1.031,4.723v2.016a3.835,3.835,0,0,0,3.07-3.3l.059-.527-.352-.07a7.865,7.865,0,0,0,.539-2.379A10.572,10.572,0,0,1,178.76.938L179.311,0l-1.078.047a9.49,9.49,0,0,0-5.484,2.324,6.135,6.135,0,0,0-1.828,3.75l-.422-.082-.141.527a3.62,3.62,0,0,0,.527,3.281A3.577,3.577,0,0,0,172.983,11.16Z" transform="translate(-162.969)" fill="#009688"/><path d="M242.186,285.758a3.313,3.313,0,0,1-.586-.059v1.855h1.172v-1.844a3,3,0,0,1-.574.047Z" transform="translate(-231.586 -274.539)" fill="#009688"/><path d="M34.3,337.125a5.931,5.931,0,0,1,1.3-.453,2.561,2.561,0,0,1,2.174.55,2.878,2.878,0,0,1,.635.753,5.386,5.386,0,0,1,1.018.439,5.386,5.386,0,0,1,1.018-.439,2.878,2.878,0,0,1,.635-.753,2.573,2.573,0,0,1,2.174-.55,5.9,5.9,0,0,1,1.3.454,5.406,5.406,0,0,0,2.5.578h1.16v-1.172h-1.16a4.3,4.3,0,0,1-2.021-.477,7.045,7.045,0,0,0-1.544-.531,3.776,3.776,0,0,0-3.151.789,4.049,4.049,0,0,0-.913,1.093,4.051,4.051,0,0,0-.913-1.093,3.773,3.773,0,0,0-3.151-.789,7.043,7.043,0,0,0-1.544.531,4.3,4.3,0,0,1-2.021.477H30.6V337.7h1.2A5.4,5.4,0,0,0,34.3,337.125Z" transform="translate(-28.828 -322.344)" fill="#009688"/></g></svg>