<svg xmlns="http://www.w3.org/2000/svg" width="80" height="80" viewBox="0 0 80 80">
  <g id="check" transform="translate(-903 -373)">
    <circle id="Эллипс_43" data-name="Эллипс 43" cx="40" cy="40" r="40" transform="translate(903 373)" fill="#e5f4f3"/>
    <path id="Контур_3" data-name="Контур 3" d="M32.479,20.8c-1.533-.825-3.242.766-4.244,1.709-2.3,2.24-4.244,4.833-6.425,7.191-2.417,2.593-4.656,5.187-7.132,7.722a21.266,21.266,0,0,0-3.89,4.715A77.37,77.37,0,0,0,4.481,36c-1.709-1.3-4.539-2.24-4.48.884.118,4.067,3.713,8.429,6.366,11.2,1.12,1.179,2.593,2.417,4.3,2.476,2.063.118,4.185-2.358,5.423-3.713,2.181-2.358,3.949-5.01,5.953-7.427,2.593-3.183,5.246-6.307,7.78-9.549C31.418,27.869,36.428,22.918,32.479,20.8ZM2.595,36.652a.446.446,0,0,0-.236.059,2.868,2.868,0,0,1-.648-.236h0Q1.976,36.3,2.595,36.652Z" transform="translate(926 377.434)" fill="#009688"/>
  </g>
</svg>
