<svg xmlns="http://www.w3.org/2000/svg" width="24.915" height="21" viewBox="0 0 24.915 21"><g transform="translate(-2 -7.5)"><path d="M2.356,16.793A.356.356,0,0,1,2,16.437V13.924A1.424,1.424,0,0,1,3.424,12.5H4.947a.356.356,0,0,1,0,.712H3.424a.712.712,0,0,0-.712.712v2.513A.356.356,0,0,1,2.356,16.793Z" transform="translate(0 -3.22)" fill="#2e2e2e"/><path d="M2.356,41.239A.356.356,0,0,1,2,40.883V39.826a.356.356,0,0,1,.712,0v1.057A.356.356,0,0,1,2.356,41.239Z" transform="translate(0 -20.591)" fill="#2e2e2e"/><path d="M4.947,53.733H3.424A1.424,1.424,0,0,1,2,52.309V49.8a.356.356,0,1,1,.712,0v2.513a.712.712,0,0,0,.712.712H4.947a.356.356,0,1,1,0,.712Z" transform="translate(0 -27.012)" fill="#2e2e2e"/><path d="M2.356,31.308A.356.356,0,0,1,2,30.952V29.916a.356.356,0,1,1,.712,0v1.036A.356.356,0,0,1,2.356,31.308Z" transform="translate(0 -14.208)" fill="#2e2e2e"/><path d="M41.862,29.941H27.773a.356.356,0,0,1,0-.712H41.862a.712.712,0,0,0,.712-.712V13.924a.712.712,0,0,0-.712-.712H27.773a.356.356,0,0,1,0-.712H41.862a1.424,1.424,0,0,1,1.424,1.424V28.517A1.424,1.424,0,0,1,41.862,29.941Z" transform="translate(-16.37 -3.22)" fill="#2e2e2e"/><path d="M15.083,28.5H10.645a1.366,1.366,0,0,1-1.364-1.364V8.864A1.366,1.366,0,0,1,10.645,7.5h4.438a1.366,1.366,0,0,1,1.365,1.364V27.136A1.366,1.366,0,0,1,15.083,28.5ZM10.645,8.212a.653.653,0,0,0-.652.652V27.136a.653.653,0,0,0,.652.652h4.438a.653.653,0,0,0,.653-.652V8.864a.653.653,0,0,0-.653-.652Z" transform="translate(-4.689)" fill="#2e2e2e"/><path d="M44.14,23.665H34.686A.687.687,0,0,1,34,22.979V20.436a.687.687,0,0,1,.686-.686H44.14a.687.687,0,0,1,.686.686v2.543A.687.687,0,0,1,44.14,23.665Zm-9.428-.712h9.4V20.462h-9.4Z" transform="translate(-20.61 -7.89)" fill="#2e2e2e"/><path d="M59.491,36.795H58.9a.356.356,0,1,1,0-.712h.593a.356.356,0,1,1,0,.712Z" transform="translate(-36.417 -18.409)" fill="#2e2e2e"/><path d="M48.324,36.795h-.593a.356.356,0,1,1,0-.712h.593a.356.356,0,0,1,0,.712Z" transform="translate(-29.225 -18.409)" fill="#2e2e2e"/><path d="M37.157,36.795h-.593a.356.356,0,0,1,0-.712h.593a.356.356,0,0,1,0,.712Z" transform="translate(-22.032 -18.409)" fill="#2e2e2e"/><path d="M59.491,44.712H58.9a.356.356,0,1,1,0-.712h.593a.356.356,0,1,1,0,.712Z" transform="translate(-36.417 -23.508)" fill="#2e2e2e"/><path d="M48.324,44.712h-.593a.356.356,0,1,1,0-.712h.593a.356.356,0,0,1,0,.712Z" transform="translate(-29.225 -23.508)" fill="#2e2e2e"/><path d="M37.157,44.712h-.593a.356.356,0,0,1,0-.712h.593a.356.356,0,0,1,0,.712Z" transform="translate(-22.032 -23.508)" fill="#2e2e2e"/><path d="M59.491,52.629H58.9a.356.356,0,1,1,0-.712h.593a.356.356,0,1,1,0,.712Z" transform="translate(-36.417 -28.608)" fill="#2e2e2e"/><path d="M48.324,52.629h-.593a.356.356,0,1,1,0-.712h.593a.356.356,0,0,1,0,.712Z" transform="translate(-29.225 -28.608)" fill="#2e2e2e"/><path d="M37.157,52.629h-.593a.356.356,0,0,1,0-.712h.593a.356.356,0,0,1,0,.712Z" transform="translate(-22.032 -28.608)" fill="#2e2e2e"/></g></svg>