<svg xmlns="http://www.w3.org/2000/svg" width="17.777" height="17.31" viewBox="0 0 17.777 17.31"><g transform="translate(0 0)"><g transform="translate(13.089 10.773)"><path d="M365.2,303.763l-1.975-1.975a1.431,1.431,0,0,0-1.975,0l-.329.329,3.95,3.95.329-.329A1.4,1.4,0,0,0,365.2,303.763Z" transform="translate(-360.917 -301.393)" fill="#009688"/></g><g transform="translate(0 1.41)"><g transform="translate(0)"><path d="M11.9,55.664a1.21,1.21,0,0,1-1.569-.078L5.914,51.295a1.126,1.126,0,0,1-.081-1.524L1.378,45.443a5.4,5.4,0,0,0,.274,7.495l6.985,6.788a5.772,5.772,0,0,0,7.716.266Z" transform="translate(0 -45.443)" fill="#009688"/></g></g><g transform="translate(1.85 0)"><g transform="translate(0 0)"><path d="M63.891,2.37,61.917.4a1.431,1.431,0,0,0-1.975,0l-.329.329,3.95,3.95.329-.329A1.4,1.4,0,0,0,63.891,2.37Z" transform="translate(-59.612 0)" fill="#009688"/></g></g></g></svg>