<svg xmlns="http://www.w3.org/2000/svg" xmlns:xlink="http://www.w3.org/1999/xlink" width="21.286" height="15" viewBox="0 0 21.286 15">
  <defs>
    <clipPath id="clip-path">
      <rect width="21.286" height="15" fill="none"/>
    </clipPath>
  </defs>
  <g id="Группа_прокрутки_2" data-name="Группа прокрутки 2" clip-path="url(#clip-path)" style="isolation: isolate">
    <path id="Контур_60" data-name="Контур 60" d="M10.432,15.546a.477.477,0,0,1-.427-.3L8.244,10c-.056-.166-.146-.166-.2,0L6.282,15.246a.477.477,0,0,1-.427.3H.156c-.18,0-.208.083-.062.186L4.7,18.974a.454.454,0,0,1,.163.486L3.106,24.706c-.056.166.017.217.163.115L7.88,21.578a.49.49,0,0,1,.527,0l4.611,3.243c.146.1.219.051.163-.115L11.42,19.46a.454.454,0,0,1,.163-.486l4.611-3.242c.146-.1.118-.186-.062-.186h-5.7Z" transform="translate(0 -9.874)" fill="#009688"/>
  </g>
</svg>
