<svg xmlns="http://www.w3.org/2000/svg" width="36" height="36" viewBox="0 0 36 36"><path d="M28.125,14.625a7.859,7.859,0,0,0-2.742,15.23A3.365,3.365,0,0,1,22.5,31.5a9,9,0,0,1-8.841-7.432l1.552-2.328a10.439,10.439,0,0,0,5.522-5.066A14.921,14.921,0,0,0,22.5,10.125V3.375a2.25,2.25,0,0,0-2.25-2.25h-.878a3.369,3.369,0,1,0-2.5,5.625A3.336,3.336,0,0,0,18,6.543v3.582a10.721,10.721,0,0,1-1.3,4.544,6.032,6.032,0,0,1-10.836-.1A11.679,11.679,0,0,1,4.5,9.75V6.543a3.336,3.336,0,0,0,1.125.207,3.375,3.375,0,1,0-2.5-5.625H2.25A2.25,2.25,0,0,0,0,3.375V9.75a15.835,15.835,0,0,0,1.819,6.784,10.629,10.629,0,0,0,5.409,5.115l1.947,2.92A13.508,13.508,0,0,0,22.5,36a7.868,7.868,0,0,0,7.595-5.905,7.858,7.858,0,0,0-1.97-15.47Zm0,11.25A3.375,3.375,0,1,1,31.5,22.5,3.375,3.375,0,0,1,28.125,25.875Z" fill="#009688"/></svg>