<svg xmlns="http://www.w3.org/2000/svg" width="40" height="40" viewBox="0 0 40 40"><rect width="40" height="40" fill="#7d3daf"/><g transform="translate(6.757 6.312)"><path d="M102.879,78.5l-.008-.032a9.131,9.131,0,0,0-6.165-5.932l-.03-.006a34.259,34.259,0,0,0-12.9,0l-.031.006a9.135,9.135,0,0,0-6.165,5.932l-.007.032a25.24,25.24,0,0,0,0,10.873l.007.032a9.21,9.21,0,0,0,5.825,5.845V98.13a1.159,1.159,0,0,0,2,.8L88.327,95.9c.634.035,1.268.055,1.9.055a34.369,34.369,0,0,0,6.448-.612l.03-.006a9.131,9.131,0,0,0,6.165-5.932l.008-.032A25.24,25.24,0,0,0,102.879,78.5Zm-2.312,10.35a6.906,6.906,0,0,1-4.352,4.167,31.933,31.933,0,0,1-6.859.554.162.162,0,0,0-.121.049L87.1,95.808l-2.269,2.329a.266.266,0,0,1-.457-.183V93.176a.165.165,0,0,0-.134-.161h0a6.908,6.908,0,0,1-4.352-4.167,22.9,22.9,0,0,1,0-9.827,6.908,6.908,0,0,1,4.352-4.167,31.907,31.907,0,0,1,11.975,0,6.9,6.9,0,0,1,4.352,4.167A22.88,22.88,0,0,1,100.567,88.847Z" transform="translate(-76.986 -71.916)" fill="#fff"/><path d="M159.987,153.186c-.267-.081-.522-.136-.758-.234a17.226,17.226,0,0,1-6.491-4.338,16.847,16.847,0,0,1-2.483-3.8c-.319-.648-.587-1.321-.861-1.99a1.726,1.726,0,0,1,.505-1.7,3.991,3.991,0,0,1,1.337-1,.858.858,0,0,1,1.074.255,13.845,13.845,0,0,1,1.661,2.325,1.107,1.107,0,0,1-.31,1.5c-.126.085-.24.186-.357.282a1.171,1.171,0,0,0-.27.284.779.779,0,0,0-.052.684,6.191,6.191,0,0,0,3.477,3.849,1.77,1.77,0,0,0,.891.216c.545-.064.721-.661,1.1-.973a1.039,1.039,0,0,1,1.252-.055c.4.254.792.527,1.179.8a13.492,13.492,0,0,1,1.109.845.88.88,0,0,1,.263,1.089,3.684,3.684,0,0,1-1.583,1.744,3.82,3.82,0,0,1-.684.218C159.72,153.1,160.219,153.114,159.987,153.186Z" transform="translate(-142.964 -134.049)" fill="#fff"/><path d="M221.937,131.457a6.512,6.512,0,0,1,6.4,5.385c.1.54.13,1.092.173,1.64a.385.385,0,0,1-.361.452c-.257,0-.372-.212-.389-.442-.033-.456-.056-.914-.119-1.366a5.727,5.727,0,0,0-4.612-4.787c-.358-.064-.724-.081-1.086-.119-.229-.024-.529-.038-.58-.323a.391.391,0,0,1,.386-.441c.062,0,.124,0,.186,0C225.142,131.547,221.875,131.457,221.937,131.457Z" transform="translate(-208.687 -126.23)" fill="#fff"/><path d="M232.925,155.574a1.471,1.471,0,0,1-.032.223.364.364,0,0,1-.685.037.969.969,0,0,1-.038-.31,3.882,3.882,0,0,0-.491-1.948,3.624,3.624,0,0,0-1.52-1.426,4.374,4.374,0,0,0-1.212-.372c-.183-.03-.367-.049-.551-.074a.349.349,0,0,1-.331-.392.345.345,0,0,1,.384-.34,5.038,5.038,0,0,1,2.1.547,4.247,4.247,0,0,1,2.311,3.3c.01.067.026.134.031.2.013.167.02.334.033.553C232.92,155.614,232.913,155.354,232.925,155.574Z" transform="translate(-214.805 -144.033)" fill="#fff"/><path d="M235.992,173.744a.4.4,0,0,1-.439-.389,4.039,4.039,0,0,0-.075-.512,1.44,1.44,0,0,0-.531-.834,1.387,1.387,0,0,0-.433-.209c-.2-.057-.4-.041-.6-.089a.366.366,0,0,1-.3-.425.385.385,0,0,1,.406-.31,2.2,2.2,0,0,1,2.257,2.195,1.016,1.016,0,0,1,0,.311.319.319,0,0,1-.286.262C235.724,173.749,236.114,173.736,235.992,173.744Z" transform="translate(-219.865 -162.281)" fill="#fff"/></g></svg>