<svg xmlns="http://www.w3.org/2000/svg" width="24.429" height="22.5" viewBox="0 0 24.429 22.5"><path d="M15.648,18.381a.716.716,0,0,1-.64-.45L12.366,10.06c-.084-.249-.219-.249-.3,0L9.422,17.931a.716.716,0,0,1-.64.45H.234c-.27,0-.312.125-.093.278l6.916,4.864a.681.681,0,0,1,.244.728l-2.641,7.87c-.084.249.026.326.244.172l6.916-4.864a.736.736,0,0,1,.791,0l6.916,4.864c.219.154.328.077.244-.172l-2.641-7.87a.681.681,0,0,1,.244-.728l6.916-4.864c.219-.154.176-.278-.093-.278H15.648Z" transform="translate(0 -9.874)" fill="#dfdfdf"/></svg>